 <svg  version="1.0" xmlns="http://www.w3.org/2000/svg"  width="300.000000pt" height="300.000000pt" viewBox="0 0 300.000000 300.000000"  preserveAspectRatio="xMidYMid meet">  <g transform="translate(0.000000,300.000000) scale(0.100000,-0.100000)" fill="#555753" stroke="none"> <path d="M35 2979 c4 -13 -1 -19 -17 -22 -13 -2 5 -5 39 -6 65 -1 81 8 63 36 -9 16 -10 15 -5 -4 6 -20 3 -23 -25 -23 -27 0 -31 3 -27 19 3 15 0 19 -14 18 -13 -1 -17 -7 -14 -18z"/> <path d="M380 2990 c0 -6 11 -21 25 -34 32 -30 31 -38 -5 -74 l-30 -31 26 -20 c33 -26 66 -28 62 -3 -1 9 3 32 11 49 11 27 16 31 31 23 29 -15 76 -12 99 8 11 9 27 34 36 55 l15 37 -28 0 c-22 0 -32 -7 -45 -35 -17 -37 -41 -44 -77 -25 -22 12 -16 42 6 33 8 -3 14 0 14 5 0 12 -39 27 -47 18 -4 -3 -1 -6 5 -6 6 0 9 -7 6 -15 -8 -21 -28 -19 -49 5 -19 21 -55 27 -55 10z m90 -77 c0 -13 -32 -63 -41 -63 -6 0 -7 -5 -3 -12 4 -6 3 -8 -4 -5 -5 4 -9 15 -7 25 2 9 4 20 4 24 1 4 9 4 19 1 15 -6 15 -5 3 10 -9 12 -10 17 -2 17 7 0 9 4 6 10 -3 6 1 7 9 4 9 -3 16 -8 16 -11z"/> <path d="M866 2985 c4 -8 10 -12 15 -9 5 3 9 0 9 -7 0 -7 3 -9 7 -6 3 4 11 3 17 -2 7 -6 24 -4 44 4 33 15 43 35 16 35 -9 0 -12 -5 -8 -12 6 -10 4 -10 -8 0 -13 10 -17 10 -21 0 -3 -10 -8 -11 -26 0 -29 17 -52 16 -45 -3z"/> <path d="M1180 2971 c0 -20 -8 -34 -25 -45 -14 -10 -30 -28 -36 -42 -10 -29 -1 -54 12 -33 6 10 9 11 9 2 0 -7 5 -13 10 -13 6 0 10 14 10 30 0 17 5 30 10 30 6 0 10 -20 10 -45 0 -48 25 -85 56 -85 17 0 84 62 84 77 0 5 -22 22 -50 38 -47 28 -50 32 -51 75 l-2 45 -6 -50 c-4 -34 -11 -50 -20 -50 -8 0 -16 6 -19 14 -3 8 0 11 7 7 7 -5 11 6 11 33 0 23 -2 41 -5 41 -3 0 -5 -13 -5 -29z m104 -105 c11 -9 16 -21 12 -32 -6 -15 -8 -15 -31 0 -15 10 -26 12 -30 6 -3 -6 1 -10 9 -10 20 0 21 -26 2 -33 -8 -3 -22 1 -33 9 -10 9 -12 13 -5 9 7 -4 12 0 12 10 0 11 -5 15 -15 11 -11 -4 -15 2 -15 22 0 55 30 58 94 8z"/> <path d="M1247 2965 c3 -23 2 -27 -6 -15 -9 13 -11 13 -11 -1 0 -17 56 -46 67 -35 3 3 -1 6 -11 6 -13 0 -15 4 -6 19 5 11 10 30 9 43 -1 16 -4 12 -11 -14 -6 -21 -14 -38 -19 -38 -6 0 -5 8 1 19 5 11 10 28 9 38 0 16 -1 16 -8 -2 -7 -16 -9 -17 -13 -5 -3 8 -3 2 -1 -15z"/> <path d="M1317 2993 c-4 -3 -7 -11 -7 -17 0 -6 5 -4 10 4 8 12 10 11 10 -7 0 -17 -4 -21 -17 -17 -14 5 -15 4 -4 -4 8 -6 11 -17 8 -27 -5 -10 -3 -14 5 -9 8 5 9 -1 4 -20 -5 -20 -4 -26 5 -20 9 5 11 -2 6 -29 -3 -20 -1 -39 4 -42 5 -4 9 2 10 12 0 10 3 13 6 6 10 -25 23 -12 23 22 0 25 -7 43 -25 59 -14 13 -25 30 -25 37 0 11 2 11 8 1 6 -8 12 -1 19 23 6 19 7 35 3 35 -5 0 -11 -10 -13 -22 l-4 -23 -2 23 c-1 22 -11 28 -24 15z"/> <path d="M1478 2983 c-3 -12 -3 -24 0 -27 10 -10 141 -6 147 4 3 5 1 18 -5 27 -9 16 -10 15 -5 -4 6 -20 3 -23 -25 -23 -27 0 -31 3 -27 19 3 15 0 19 -14 18 -13 -1 -17 -7 -13 -19 4 -14 0 -18 -20 -18 -18 0 -26 6 -28 23 l-3 22 -7 -22z"/> <path d="M1880 2990 c0 -6 11 -21 25 -34 32 -30 31 -38 -5 -74 l-30 -31 26 -20 c33 -26 66 -28 62 -3 -1 9 3 32 11 49 11 27 16 31 31 23 29 -15 76 -12 99 8 11 9 27 34 36 55 l15 37 -28 0 c-22 0 -32 -7 -45 -35 -17 -37 -41 -44 -77 -25 -22 12 -16 42 6 33 8 -3 14 0 14 5 0 12 -39 27 -47 18 -4 -3 -1 -6 5 -6 6 0 9 -7 6 -15 -8 -21 -28 -19 -49 5 -19 21 -55 27 -55 10z m90 -77 c0 -13 -32 -63 -41 -63 -6 0 -7 -4 -4 -10 3 -6 -1 -7 -10 -3 -12 4 -13 8 -5 13 6 4 11 10 11 14 -3 22 1 27 15 22 14 -5 15 -4 4 9 -9 11 -9 15 -1 15 7 0 9 4 6 10 -3 6 1 7 9 4 9 -3 16 -8 16 -11z"/> <path d="M2366 2985 c4 -8 10 -12 15 -9 5 3 9 0 9 -7 0 -7 3 -9 7 -6 3 4 11 3 17 -2 7 -6 24 -4 44 4 33 15 43 35 16 35 -9 0 -12 -5 -8 -12 6 -10 4 -10 -8 0 -13 10 -17 10 -21 0 -3 -10 -8 -11 -26 0 -29 17 -52 16 -45 -3z"/> <path d="M2680 2971 c0 -20 -8 -34 -25 -45 -14 -10 -30 -28 -36 -42 -10 -29 -1 -54 12 -33 6 10 9 11 9 2 0 -7 5 -13 10 -13 6 0 10 14 10 30 0 17 5 30 10 30 6 0 10 -20 10 -45 0 -48 25 -85 56 -85 17 0 84 62 84 77 0 5 -22 22 -50 38 -47 28 -50 32 -51 75 l-2 45 -6 -50 c-4 -34 -11 -50 -20 -50 -8 0 -16 6 -19 14 -3 8 0 11 7 7 7 -5 11 6 11 33 0 23 -2 41 -5 41 -3 0 -5 -13 -5 -29z m104 -105 c11 -9 16 -21 12 -32 -6 -15 -8 -15 -31 0 -15 10 -26 12 -30 6 -3 -6 1 -10 9 -10 20 0 21 -26 2 -33 -8 -3 -22 1 -33 9 -10 9 -12 13 -5 9 7 -4 12 0 12 10 0 11 -5 15 -15 11 -11 -4 -15 2 -15 22 0 55 30 58 94 8z"/> <path d="M2747 2965 c3 -23 2 -27 -6 -15 -9 13 -11 13 -11 -1 0 -17 56 -46 67 -35 3 3 -1 6 -11 6 -13 0 -15 4 -6 19 5 11 10 30 9 43 -1 16 -4 12 -11 -14 -6 -21 -14 -38 -19 -38 -6 0 -5 8 1 19 5 11 10 28 9 38 0 16 -1 16 -8 -2 -7 -16 -9 -17 -13 -5 -3 8 -3 2 -1 -15z"/> <path d="M2817 2993 c-4 -3 -7 -11 -7 -17 0 -6 5 -4 10 4 8 12 10 11 10 -7 0 -17 -4 -21 -17 -17 -14 5 -15 4 -4 -4 8 -6 11 -17 8 -27 -5 -10 -3 -14 5 -9 8 5 9 -1 4 -20 -5 -20 -4 -26 5 -20 9 5 11 -2 6 -29 -3 -20 -1 -39 4 -42 5 -4 9 2 10 12 0 10 3 13 6 6 10 -25 23 -12 23 22 0 25 -7 43 -25 59 -14 13 -25 30 -25 37 0 11 2 11 8 1 6 -8 12 -1 19 23 6 19 7 35 3 35 -5 0 -11 -10 -13 -22 l-4 -23 -2 23 c-1 22 -11 28 -24 15z"/> <path d="M206 2944 c-30 -29 -10 -74 33 -74 14 0 41 29 41 45 0 18 -27 45 -45 45 -7 0 -21 -7 -29 -16z m58 -17 c13 -21 -15 -53 -38 -44 -26 10 -31 38 -11 54 22 16 35 13 49 -10z"/> <path d="M1706 2944 c-30 -29 -10 -74 33 -74 14 0 41 29 41 45 0 18 -27 45 -45 45 -7 0 -21 -7 -29 -16z m58 -16 c8 -14 7 -21 -6 -34 -30 -30 -75 9 -48 42 16 18 39 15 54 -8z"/> <path d="M828 2867 c-3 -19 -8 -22 -40 -19 -20 1 -39 -2 -43 -8 -5 -8 -13 -6 -25 5 -15 14 -18 14 -23 1 -4 -9 1 -17 13 -21 17 -6 18 -8 3 -34 -13 -21 -22 -27 -41 -23 -18 4 -23 1 -20 -9 3 -8 13 -13 22 -13 9 1 16 -6 16 -17 0 -10 11 -26 25 -35 23 -15 24 -19 12 -38 -12 -18 -12 -23 -1 -34 20 -18 44 -15 44 7 0 11 4 22 10 26 10 6 111 -41 122 -58 4 -7 12 -6 22 2 17 14 22 41 8 41 -5 0 -16 6 -26 13 -17 13 -17 15 -2 45 11 22 21 29 32 25 14 -5 15 -3 4 18 -9 18 -9 21 -1 13 7 -6 14 -20 15 -30 4 -26 23 -28 36 -4 6 12 10 22 8 23 -2 1 -33 17 -70 35 -70 33 -80 44 -51 60 14 9 15 12 2 24 -27 27 -48 29 -51 5z m32 -21 c0 -8 -8 -17 -17 -21 -15 -5 -11 -11 22 -31 22 -13 44 -25 49 -27 10 -3 -40 -113 -55 -123 -5 -2 -26 4 -48 16 -44 22 -55 25 -47 11 3 -5 -2 -15 -11 -22 -15 -12 -16 -12 -8 1 5 8 10 20 11 27 3 16 37 62 47 63 4 0 7 -4 7 -10 0 -5 7 -10 15 -10 22 0 18 21 -5 27 -16 4 -18 9 -9 25 6 10 9 24 7 30 -2 5 -14 -13 -28 -41 -24 -52 -47 -64 -68 -38 -8 9 -5 23 11 52 19 33 28 40 54 40 32 1 47 8 49 26 3 17 4 19 14 19 6 0 10 -6 10 -14z"/> <path d="M830 2771 c0 -6 5 -13 12 -17 7 -4 8 -3 4 4 -4 7 -2 12 3 12 6 0 11 -6 11 -14 0 -15 24 -28 34 -19 11 12 6 20 -19 31 -31 14 -45 15 -45 3z"/> <path d="M2328 2867 c-3 -19 -8 -22 -40 -19 -20 1 -39 -2 -43 -8 -5 -8 -13 -6 -25 5 -15 14 -18 14 -23 1 -4 -9 1 -17 13 -21 17 -6 18 -8 3 -34 -13 -21 -22 -27 -41 -23 -18 4 -23 1 -20 -9 3 -8 13 -13 22 -13 9 1 16 -6 16 -17 0 -10 11 -26 25 -35 23 -15 24 -19 12 -38 -12 -18 -12 -23 -1 -34 20 -18 44 -15 44 7 0 11 4 22 10 26 10 6 111 -41 122 -58 4 -7 12 -6 22 2 17 14 22 41 8 41 -5 0 -16 6 -26 13 -17 13 -17 15 -2 45 11 22 21 29 32 25 14 -5 15 -3 4 18 -9 18 -9 21 -1 13 7 -6 14 -20 15 -30 4 -26 23 -28 36 -4 6 12 10 22 8 23 -2 1 -33 17 -70 35 -70 33 -80 44 -51 60 14 9 15 12 2 24 -27 27 -48 29 -51 5z m32 -21 c0 -8 -8 -17 -17 -21 -15 -5 -11 -11 22 -31 22 -13 44 -25 49 -27 10 -3 -40 -113 -55 -123 -7 -4 -83 28 -98 42 -1 1 9 15 23 31 14 15 26 22 26 15 0 -6 7 -12 15 -12 20 0 19 19 -1 27 -11 4 -14 14 -9 37 4 25 0 21 -22 -21 -27 -53 -50 -66 -71 -40 -8 9 -5 23 11 52 19 33 28 40 54 40 32 1 47 8 49 26 3 17 4 19 14 19 6 0 10 -6 10 -14z"/> <path d="M2330 2771 c0 -6 5 -13 12 -17 7 -4 8 -3 4 4 -4 7 -2 12 3 12 6 0 11 -6 11 -14 0 -15 24 -28 34 -19 11 12 6 20 -19 31 -31 14 -45 15 -45 3z"/> <path d="M123 2810 c-27 -11 -27 -14 -9 -43 15 -23 32 -107 22 -107 -11 0 -46 80 -46 105 0 25 -13 31 -45 19 -14 -6 -14 -9 -2 -23 19 -22 37 -99 37 -157 0 -42 2 -46 13 -30 18 25 118 58 134 44 23 -18 14 8 -10 33 -13 13 -31 43 -41 66 -10 23 -22 41 -25 38 -4 -2 -5 12 -3 31 2 19 3 34 1 33 -2 0 -14 -4 -26 -9z m-24 -117 c16 -33 18 -41 6 -37 -8 4 -12 10 -9 15 3 5 1 9 -4 9 -5 0 -9 6 -9 13 0 6 -4 21 -8 32 -13 32 1 14 24 -32z m111 -51 c0 -9 -113 -42 -120 -36 -7 8 39 44 57 44 8 0 12 4 8 10 -3 5 7 5 25 -1 16 -6 30 -14 30 -17z"/> <path d="M1623 2810 c-27 -11 -27 -14 -9 -43 8 -12 17 -39 20 -59 4 -20 12 -39 19 -41 7 -3 5 -6 -5 -6 -21 -1 -58 66 -58 104 0 20 -5 25 -23 25 -32 0 -40 -10 -23 -29 18 -22 36 -99 36 -157 0 -42 2 -46 13 -30 18 25 118 58 134 44 23 -18 14 8 -10 33 -13 13 -31 43 -41 66 -10 23 -22 41 -25 38 -4 -2 -5 12 -3 31 2 19 3 34 1 33 -2 0 -14 -4 -26 -9z m-24 -117 c16 -33 18 -41 6 -37 -8 4 -12 10 -9 15 3 5 1 9 -4 9 -5 0 -9 6 -9 13 0 6 -4 21 -8 32 -13 32 1 14 24 -32z m101 -43 c8 -5 12 -10 10 -12 -11 -8 -114 -37 -118 -33 -8 8 11 27 42 41 37 16 46 17 66 4z"/> <path d="M1390 2715 c-18 -22 -8 -50 19 -50 32 0 49 28 32 49 -17 20 -35 20 -51 1z"/> <path d="M2890 2715 c-18 -22 -8 -50 19 -50 32 0 49 28 32 49 -17 20 -35 20 -51 1z"/> <path d="M445 2701 c-3 -10 -3 -25 0 -33 3 -8 -1 -31 -10 -51 -15 -35 -14 -37 4 -37 11 0 28 11 39 25 11 14 25 25 31 25 10 0 31 31 31 47 0 9 -63 43 -80 43 -5 0 -11 -8 -15 -19z"/> <path d="M1945 2701 c-3 -10 -3 -25 0 -33 3 -8 -1 -31 -10 -51 -15 -35 -14 -37 4 -37 11 0 28 11 39 25 11 14 27 25 35 25 12 0 34 47 25 55 -10 8 -69 35 -77 35 -5 0 -12 -8 -16 -19z"/> <path d="M1079 2679 c-14 -14 -19 -28 -15 -45 6 -24 -21 -64 -44 -64 -5 0 -10 -9 -10 -19 0 -11 5 -23 10 -26 6 -3 10 -1 10 4 0 6 4 11 9 11 5 0 7 -9 4 -20 -4 -13 0 -20 10 -20 19 0 41 26 34 43 -6 15 10 37 38 53 27 15 39 38 31 60 -7 18 -8 18 -25 -4 -21 -29 -36 -17 -17 14 25 37 -1 47 -35 13z m17 -15 c-4 -9 -1 -23 5 -31 10 -11 15 -11 30 3 11 10 19 12 19 6 0 -6 -7 -17 -16 -24 -47 -38 -65 -60 -60 -73 3 -8 1 -17 -3 -20 -5 -3 -12 2 -15 11 -4 9 -13 14 -21 10 -8 -3 -15 -1 -15 4 0 6 4 10 10 10 19 0 49 43 48 70 -1 27 8 50 19 50 3 0 2 -7 -1 -16z"/> <path d="M2579 2679 c-14 -14 -19 -28 -15 -43 6 -23 -24 -66 -44 -66 -13 0 -13 -37 0 -45 6 -3 10 -1 10 4 0 6 4 11 9 11 5 0 7 -9 4 -20 -4 -13 0 -20 10 -20 19 0 41 26 34 43 -6 15 10 37 38 53 27 15 39 38 31 60 -7 18 -8 18 -25 -4 -21 -29 -36 -17 -17 14 25 37 -1 47 -35 13z m17 -15 c-4 -9 -1 -23 5 -31 10 -11 15 -11 30 3 16 15 17 14 12 -5 -3 -11 -14 -23 -24 -26 -23 -8 -53 -50 -45 -64 4 -5 2 -12 -3 -15 -5 -3 -12 1 -15 10 -4 9 -13 14 -21 10 -8 -3 -15 -1 -15 4 0 6 4 10 10 10 19 0 51 45 46 64 -3 11 -1 28 5 38 12 22 23 24 15 2z"/> <path d="M256 2613 c5 -31 3 -35 -6 -23 -10 13 -11 12 -5 -5 21 -59 23 -75 12 -75 -7 0 -38 -11 -70 -24 l-59 -24 -10 30 c-10 29 -12 30 -25 13 -7 -11 -13 -15 -14 -9 -5 67 -16 88 -38 75 -19 -12 12 -68 49 -89 30 -17 58 -62 40 -62 -6 0 -10 -7 -10 -15 0 -8 5 -15 11 -15 5 0 7 6 3 13 -5 9 -4 9 6 0 14 -13 43 -6 34 8 -3 5 2 12 11 15 12 5 13 9 4 14 -8 5 2 15 31 29 23 11 47 18 52 15 5 -4 9 4 7 17 -1 13 2 35 8 49 16 39 5 100 -17 100 -16 0 -18 -6 -14 -37z"/> <path d="M1756 2613 c5 -31 3 -35 -6 -23 -10 13 -11 12 -5 -5 21 -59 23 -75 12 -75 -7 0 -38 -11 -70 -24 l-59 -24 -10 30 c-10 29 -12 30 -25 13 -7 -11 -13 -15 -14 -9 -5 67 -16 88 -38 75 -19 -12 12 -68 49 -89 30 -17 58 -62 40 -62 -6 0 -10 -7 -10 -15 0 -8 5 -15 11 -15 5 0 7 6 3 13 -6 9 -5 9 7 0 15 -12 42 -3 40 13 -1 5 11 10 26 11 15 1 29 6 31 12 4 11 42 2 42 -10 0 -19 -65 -50 -92 -45 -34 7 -37 -11 -4 -20 45 -11 129 46 111 75 -3 5 1 11 10 13 10 2 12 7 5 18 -8 13 -16 12 -57 -10 -26 -14 -51 -24 -56 -22 -4 1 -17 -2 -27 -8 -16 -9 -20 -7 -20 5 0 9 6 15 13 13 6 -1 32 8 56 20 24 12 48 19 53 16 5 -4 9 4 7 17 -1 13 2 35 8 49 16 39 5 100 -17 100 -16 0 -18 -6 -14 -37z"/> <path d="M167 2593 c-9 -2 -15 -9 -12 -14 3 -5 -1 -6 -9 -3 -10 4 -18 -1 -22 -10 -8 -20 -5 -23 21 -28 13 -2 19 2 17 11 -3 12 -1 12 14 0 16 -13 17 -12 10 14 -4 18 -2 27 5 27 7 0 10 -3 6 -6 -3 -3 -2 -16 3 -28 9 -24 5 -26 -47 -27 -23 -1 -30 -13 -14 -23 10 -6 69 12 88 26 8 7 9 17 1 39 -10 28 -21 32 -61 22z"/> <path d="M1290 2585 c-8 -9 -22 -12 -43 -8 l-32 6 22 -25 c20 -21 21 -27 10 -43 -8 -10 -29 -23 -48 -29 -21 -8 -33 -17 -31 -26 2 -8 0 -12 -4 -7 -9 9 -44 -21 -44 -38 0 -24 27 -24 39 1 6 13 15 24 21 24 6 0 4 -13 -5 -31 -15 -29 -15 -32 1 -50 16 -18 16 -22 -6 -70 -13 -28 -32 -55 -43 -60 -14 -8 -16 -13 -6 -25 6 -8 20 -14 31 -14 17 0 19 5 16 29 -2 17 -1 28 2 26 4 -2 16 16 28 40 12 25 26 45 31 45 15 0 23 -18 11 -25 -21 -13 -11 -62 16 -80 29 -19 29 -19 39 13 6 21 4 23 -22 19 -21 -3 -30 -1 -30 9 0 7 4 11 8 8 4 -2 10 5 14 15 5 16 11 18 29 11 28 -10 38 -4 60 35 l16 30 -2 -44 c-2 -31 1 -45 11 -49 10 -3 12 1 8 17 -3 11 -2 19 3 16 15 -9 19 54 6 86 -19 46 -2 79 39 73 l30 -5 -22 19 c-13 12 -20 27 -17 38 4 15 -9 26 -55 52 -69 37 -65 36 -81 17z m84 -31 c25 -14 46 -28 46 -30 0 -3 -9 -23 -21 -45 -18 -36 -24 -40 -47 -35 l-27 6 28 -15 c34 -20 34 -29 -3 -87 -27 -44 -32 -47 -55 -38 -40 15 -89 41 -107 57 -16 15 -16 17 2 52 38 74 41 76 83 51 21 -13 40 -20 43 -18 2 3 -9 11 -26 18 -35 14 -38 38 -13 81 21 36 38 36 97 3z"/> <path d="M1300 2494 c0 -15 35 -28 50 -19 16 10 1 25 -17 18 -10 -4 -14 -2 -10 4 3 5 0 10 -8 10 -8 0 -15 -6 -15 -13z"/> <path d="M1235 2450 c-3 -5 -3 -15 0 -20 4 -6 1 -9 -7 -8 -8 2 -14 -8 -16 -23 -5 -39 23 -44 48 -10 24 35 26 57 4 65 -21 8 -22 8 -29 -4z"/> <path d="M1307 2413 c-11 -10 -8 -43 4 -43 6 0 20 5 31 11 21 11 21 12 3 25 -21 16 -29 17 -38 7z"/> <path d="M1667 2593 c-9 -2 -15 -9 -12 -14 3 -5 -1 -6 -9 -3 -10 4 -18 -1 -22 -10 -8 -20 -5 -23 21 -28 13 -2 19 2 17 11 -3 12 -1 12 14 0 16 -13 17 -12 10 14 -4 18 -2 27 5 27 7 0 10 -3 6 -6 -3 -3 -2 -16 3 -28 9 -24 5 -26 -47 -27 -23 -1 -30 -13 -14 -23 10 -6 69 12 88 26 8 7 9 17 1 39 -10 28 -21 32 -61 22z"/> <path d="M2790 2585 c-8 -9 -22 -12 -43 -8 l-32 6 22 -25 c20 -21 21 -27 10 -43 -8 -10 -29 -23 -48 -29 -21 -8 -33 -17 -31 -26 2 -8 0 -12 -4 -7 -9 9 -44 -21 -44 -38 0 -24 27 -24 39 1 6 13 15 24 21 24 6 0 4 -14 -6 -32 -16 -31 -16 -32 12 -56 16 -13 24 -22 18 -18 -6 3 -21 -17 -35 -45 -13 -28 -31 -55 -42 -60 -14 -8 -16 -13 -6 -25 6 -8 20 -14 31 -14 17 0 19 5 16 29 -2 17 -1 28 2 26 4 -2 16 16 28 40 12 25 26 45 31 45 15 0 23 -18 11 -25 -21 -13 -11 -62 16 -80 29 -19 29 -19 39 13 6 21 4 23 -22 19 -21 -3 -30 -1 -30 9 0 7 4 11 8 8 4 -2 10 5 14 15 5 16 11 18 29 11 28 -10 38 -4 60 35 l16 30 -2 -44 c-2 -31 1 -45 11 -49 10 -3 12 1 8 17 -3 11 -2 19 3 16 15 -9 19 54 6 86 -19 46 -2 79 39 73 l30 -5 -22 19 c-13 12 -20 27 -17 38 4 15 -9 26 -55 52 -69 37 -65 36 -81 17z m84 -31 c25 -14 46 -28 46 -30 0 -3 -9 -23 -21 -45 -18 -36 -24 -40 -47 -35 l-27 6 28 -15 c34 -20 34 -29 -3 -87 -27 -44 -32 -47 -55 -38 -40 15 -89 41 -107 57 -16 15 -16 17 2 52 38 74 41 76 83 51 21 -13 40 -20 43 -18 2 3 -9 11 -26 18 -35 14 -38 38 -13 81 21 36 38 36 97 3z"/> <path d="M2800 2500 c0 -4 7 -13 15 -20 16 -14 50 -6 40 9 -3 6 -13 7 -22 4 -10 -4 -14 -2 -10 4 3 5 0 10 -8 10 -8 0 -15 -4 -15 -7z"/> <path d="M2735 2451 c-3 -6 -3 -16 0 -21 4 -6 1 -9 -7 -8 -19 4 -23 -48 -4 -55 22 -9 63 50 49 71 -12 20 -29 26 -38 13z"/> <path d="M2807 2413 c-11 -10 -8 -43 4 -43 6 0 20 5 31 11 21 11 21 12 3 25 -21 16 -29 17 -38 7z"/> <path d="M860 2511 c0 -7 -6 -11 -15 -7 -9 3 -15 0 -15 -10 0 -9 -5 -12 -12 -8 -8 5 -9 2 -5 -9 3 -10 2 -17 -3 -17 -5 0 -8 -9 -7 -20 1 -11 5 -20 9 -20 4 0 5 -7 2 -15 -4 -8 -1 -15 6 -15 6 0 8 -4 5 -10 -3 -5 0 -11 7 -11 7 -1 23 -3 36 -4 12 -1 22 2 22 7 0 5 5 6 10 3 6 -3 10 -1 10 4 0 6 7 11 15 11 9 0 12 6 9 15 -4 9 0 15 7 15 9 1 8 4 -4 11 -14 8 -16 14 -6 25 9 11 9 14 -1 14 -7 0 -10 7 -6 15 5 14 1 16 -36 19 -7 1 -16 6 -20 11 -5 6 -8 5 -8 -4z m30 -78 c19 -3 27 -10 23 -19 -7 -19 -33 -18 -33 1 0 8 -11 17 -25 21 -28 7 -31 14 -12 33 10 10 13 8 15 -9 2 -14 13 -23 32 -27z"/> <path d="M2360 2511 c0 -7 -6 -11 -15 -7 -9 3 -15 0 -15 -10 0 -9 -5 -12 -12 -8 -8 5 -9 2 -5 -9 3 -10 2 -17 -3 -17 -5 0 -8 -9 -7 -20 1 -11 5 -20 9 -20 4 0 5 -7 2 -15 -4 -8 -1 -15 6 -15 6 0 8 -4 5 -10 -3 -5 0 -11 7 -11 7 -1 23 -3 36 -4 12 -1 22 2 22 7 0 5 5 6 10 3 6 -3 10 -1 10 4 0 6 7 11 15 11 9 0 12 6 9 15 -4 9 0 15 7 15 9 1 8 4 -4 11 -14 8 -16 14 -6 25 9 11 9 14 -1 14 -7 0 -10 7 -6 15 5 14 1 16 -36 19 -7 1 -16 6 -20 11 -5 6 -8 5 -8 -4z m30 -78 c19 -3 27 -10 23 -19 -7 -19 -33 -18 -33 1 0 8 -11 17 -25 21 -28 7 -31 14 -12 33 10 10 13 8 15 -9 2 -14 13 -23 32 -27z"/> <path d="M420 2480 c-9 -17 -7 -22 12 -29 13 -5 36 -23 52 -39 27 -29 28 -31 12 -54 -13 -19 -26 -23 -65 -23 -27 0 -47 3 -44 8 2 4 -3 10 -12 14 -15 5 -34 -10 -35 -27 0 -3 32 -13 71 -23 43 -10 81 -27 98 -42 14 -14 35 -31 46 -39 19 -15 18 -15 -16 -16 -19 0 -40 5 -47 12 -15 15 -37 -4 -29 -25 7 -18 78 -28 121 -16 24 7 43 5 69 -6 51 -21 73 -19 96 11 31 40 27 85 -11 123 -17 17 -35 31 -40 31 -4 0 -8 9 -8 21 0 33 -18 59 -38 53 -14 -5 -14 -4 -2 4 12 9 12 14 -4 31 -11 12 -25 21 -32 21 -20 0 -28 -20 -14 -33 9 -9 11 -9 7 -1 -4 7 -1 14 7 17 8 3 17 -1 20 -9 4 -9 2 -12 -5 -8 -7 4 -10 1 -7 -7 3 -8 14 -19 25 -24 16 -8 18 -13 7 -22 -10 -10 -21 -9 -53 2 -22 8 -50 12 -61 10 -12 -2 -18 0 -14 6 10 17 -27 50 -50 43 -12 -3 -16 -2 -9 3 8 6 6 14 -7 31 -22 27 -26 27 -40 2z m194 -125 c45 -19 54 -39 31 -66 -10 -10 -18 -33 -18 -49 0 -21 -5 -30 -16 -30 -13 0 -13 2 -3 9 10 6 8 10 -11 15 -14 3 -39 19 -57 36 -34 32 -35 62 -2 88 20 16 32 15 76 -3z m122 -57 c16 -18 16 -20 3 -15 -11 3 -26 -4 -40 -21 -13 -14 -16 -20 -6 -13 14 11 17 11 17 0 0 -9 3 -10 8 -3 4 6 15 13 25 17 13 5 17 1 17 -17 0 -27 -35 -76 -55 -76 -27 0 -65 23 -65 40 0 19 56 110 68 110 5 0 17 -10 28 -22z"/> <path d="M572 2309 c2 -6 8 -11 13 -11 6 -1 15 -8 21 -16 7 -10 13 -11 17 -5 4 6 -4 18 -18 27 -28 19 -38 20 -33 5z"/> <path d="M1920 2480 c-9 -17 -7 -22 12 -29 13 -5 36 -23 52 -39 27 -29 28 -31 12 -54 -13 -19 -26 -23 -65 -23 -27 0 -47 3 -44 8 2 4 -3 10 -12 14 -15 5 -34 -10 -35 -27 0 -3 32 -13 71 -23 43 -10 81 -27 98 -42 14 -14 35 -31 46 -39 19 -15 18 -15 -15 -16 -20 0 -41 5 -48 12 -15 15 -37 -4 -29 -25 7 -18 78 -28 121 -16 24 7 43 5 69 -6 51 -21 73 -19 96 11 31 40 27 85 -11 123 -17 17 -35 31 -40 31 -4 0 -8 9 -8 21 0 28 -18 59 -33 55 -6 -1 -9 -1 -4 1 13 8 7 25 -7 20 -10 -4 -13 -1 -9 8 7 19 -25 31 -40 16 -8 -8 -8 -14 2 -23 9 -8 11 -8 8 -2 -4 7 0 14 8 18 10 4 14 -1 12 -16 -1 -14 6 -26 19 -33 17 -8 19 -13 8 -22 -10 -10 -21 -9 -53 2 -22 8 -50 12 -61 10 -12 -2 -18 0 -14 6 10 17 -27 50 -50 43 -12 -3 -16 -2 -9 3 8 6 6 14 -7 31 -22 27 -26 27 -40 2z m194 -125 c45 -19 54 -39 31 -66 -10 -10 -18 -33 -18 -49 0 -21 -5 -30 -16 -30 -13 0 -13 2 -3 9 10 6 8 10 -11 15 -14 3 -39 19 -57 36 -34 32 -35 62 -2 88 20 16 32 15 76 -3z m61 -4 c-3 -5 0 -13 6 -16 5 -4 8 -14 4 -22 -5 -13 -3 -14 10 -3 14 11 19 10 38 -10 16 -17 18 -21 6 -17 -11 3 -26 -4 -40 -21 -13 -14 -16 -20 -6 -13 14 11 17 11 17 0 0 -9 3 -10 8 -3 4 6 15 13 25 17 25 9 23 -33 -4 -67 -23 -29 -36 -32 -74 -14 -30 14 -32 32 -5 75 14 24 17 39 10 62 -4 16 -6 32 -2 35 9 9 14 7 7 -3z"/> <path d="M2072 2309 c2 -6 8 -11 13 -11 6 -1 15 -8 21 -16 7 -10 13 -11 17 -5 4 6 -4 18 -18 27 -28 19 -38 20 -33 5z"/> <path d="M245 2455 c-22 -13 -35 -25 -28 -25 6 0 14 4 17 9 7 11 46 2 46 -10 0 -19 -65 -50 -92 -45 -34 7 -37 -11 -4 -20 46 -11 129 46 111 76 -3 6 1 10 9 10 10 0 13 6 10 15 -8 21 -23 19 -69 -10z"/> <path d="M902 2232 c-23 -33 -42 -65 -42 -70 0 -22 98 -30 118 -10 21 21 14 84 -11 114 l-24 27 -41 -61z m78 -27 c0 -38 -16 -55 -51 -55 -48 0 -59 9 -47 36 12 26 23 30 33 14 11 -18 47 -12 43 8 -2 11 -11 16 -26 14 -26 -4 -28 5 -5 30 15 17 17 17 35 2 10 -10 18 -31 18 -49z"/> <path d="M2402 2234 c-23 -32 -42 -64 -42 -70 0 -24 97 -33 118 -12 21 21 14 84 -11 114 l-23 27 -42 -59z m78 -29 c0 -38 -16 -55 -51 -55 -48 0 -59 9 -47 36 12 26 23 30 33 14 11 -18 47 -12 43 8 -2 11 -11 16 -26 14 -26 -4 -28 5 -5 30 15 17 17 17 35 2 10 -10 18 -31 18 -49z"/> <path d="M215 2216 c-22 -33 -5 -66 33 -66 34 0 52 16 52 47 0 44 -60 57 -85 19z m68 -7 c15 -24 1 -49 -26 -49 -35 0 -52 23 -37 50 13 24 47 24 63 -1z"/> <path d="M1715 2216 c-22 -33 -5 -66 33 -66 34 0 52 16 52 47 0 44 -60 57 -85 19z m68 -7 c15 -24 1 -49 -26 -49 -35 0 -52 23 -37 50 13 24 47 24 63 -1z"/> <path d="M0 2215 c0 -8 5 -15 10 -15 14 0 12 -27 -3 -33 -9 -4 -9 -6 1 -6 7 -1 15 6 18 14 9 22 24 8 24 -21 0 -14 -11 -35 -25 -48 -29 -27 -31 -36 -10 -36 15 0 45 -49 45 -75 0 -8 -8 -15 -17 -16 -15 0 -15 -2 2 -9 17 -7 17 -9 3 -9 -10 -1 -18 -5 -18 -11 0 -5 12 -8 28 -6 15 2 19 1 9 -1 -18 -5 -20 -35 -3 -61 10 -17 1 -26 -19 -18 -9 3 -13 10 -10 16 3 5 2 10 -3 10 -21 0 -20 -30 1 -45 28 -20 39 -19 71 6 32 25 34 61 4 91 -13 13 -31 48 -40 78 -22 70 -23 92 -2 62 8 -12 20 -19 26 -16 6 4 8 2 4 -4 -7 -11 31 -82 44 -82 5 0 11 4 15 10 6 10 -3 22 -65 89 -28 31 -36 47 -33 66 3 13 10 22 15 19 5 -4 8 4 6 17 -1 13 -10 24 -18 24 -8 1 -25 6 -37 13 -19 11 -23 10 -23 -3z m103 -332 c-5 -12 -3 -14 8 -8 12 7 12 6 0 -9 -14 -17 -15 -17 -28 0 -18 25 -16 34 7 34 14 0 18 -5 13 -17z"/> <path d="M1450 2223 c-26 -10 -60 -46 -60 -65 0 -10 -3 -17 -7 -17 -20 3 -23 -3 -13 -22 7 -11 17 -18 24 -16 7 3 25 -6 40 -19 25 -24 35 -41 17 -30 -12 8 -21 -29 -21 -86 0 -37 4 -48 15 -48 16 0 15 33 -2 94 -3 12 -1 16 6 12 6 -4 11 -1 12 6 0 7 11 -12 25 -42 15 -34 23 -64 19 -78 -9 -36 2 -59 36 -72 27 -11 34 -10 57 7 36 26 40 65 10 95 -13 12 -31 48 -40 78 -22 70 -23 92 -2 62 8 -12 19 -20 24 -17 4 3 7 -3 6 -13 0 -9 4 -16 11 -15 7 2 10 -3 7 -10 -2 -7 2 -21 10 -32 11 -15 18 -17 26 -8 13 12 10 16 -60 92 -28 31 -36 47 -33 66 3 13 10 22 15 19 5 -4 8 4 6 17 -1 13 -10 24 -18 24 -8 1 -25 6 -37 13 -23 13 -48 14 -73 5z m40 -18 c-7 -8 -10 -21 -7 -29 3 -8 0 -17 -8 -20 -7 -2 -16 1 -19 9 -2 7 -15 15 -28 17 -21 3 -20 5 12 20 45 23 67 24 50 3z m60 -51 c0 -50 -68 -82 -119 -54 -36 19 -36 70 0 70 26 0 24 -18 -3 -31 l-23 -10 22 5 c13 2 26 0 29 -5 9 -15 34 -10 41 8 9 23 36 51 46 46 4 -2 7 -15 7 -29z m-42 -80 c23 -6 52 -50 52 -77 0 -8 -12 -17 -26 -20 -36 -7 -52 32 -20 51 21 13 20 13 -3 6 -21 -5 -23 -3 -18 15 4 18 3 20 -9 10 -11 -9 -14 -8 -14 5 0 18 4 19 38 10z m40 -111 c-21 -5 -22 -12 -3 -37 8 -10 12 -22 10 -27 -3 -4 -1 -10 5 -14 16 -10 12 -22 -9 -28 -26 -6 -34 3 -18 21 10 13 9 15 -4 10 -9 -4 -16 -1 -16 8 0 7 4 11 9 8 5 -3 6 7 4 22 -6 33 0 44 22 43 15 -1 15 -2 0 -6z m57 -33 c14 -16 16 -23 7 -32 -16 -16 -15 -31 1 -22 7 5 6 1 -2 -10 -14 -17 -15 -17 -28 0 -18 25 -16 34 7 34 11 0 20 4 20 9 0 4 -11 6 -25 3 -16 -3 -25 0 -25 8 0 8 8 10 21 7 12 -3 18 -2 13 3 -5 4 -18 10 -29 13 -19 4 -19 5 1 6 11 0 29 -8 39 -19z"/> <path d="M2950 2223 c-26 -10 -60 -46 -60 -65 0 -10 -3 -17 -7 -17 -20 3 -23 -3 -13 -22 7 -11 17 -18 24 -16 7 3 25 -6 40 -19 25 -24 35 -41 17 -30 -12 8 -21 -29 -21 -86 0 -33 4 -48 13 -48 20 0 28 11 18 24 -12 16 -22 88 -10 81 5 -4 9 0 10 7 0 7 9 -5 19 -27 l19 -40 -2 52 c-2 40 -5 49 -14 41 -10 -8 -13 -6 -13 5 0 9 8 18 18 20 10 3 6 5 -11 6 -32 1 -67 17 -67 30 0 13 37 20 48 9 22 -22 42 0 39 41 -1 21 -6 37 -10 34 -5 -3 -7 -14 -4 -24 6 -23 -14 -31 -30 -10 -10 14 -11 14 -10 -3 1 -11 -7 -22 -20 -27 -27 -10 -30 2 -7 25 11 12 12 16 2 16 -17 0 20 24 57 38 21 7 24 10 10 10 -11 0 -27 -2 -35 -5z"/> <path d="M1040 2131 c-21 -41 21 -81 58 -55 27 19 28 36 4 57 -25 22 -49 21 -62 -2z m58 -3 c18 -18 15 -36 -7 -48 -28 -14 -55 13 -41 41 12 22 30 25 48 7z"/> <path d="M2540 2131 c-21 -41 21 -81 58 -55 27 19 28 36 4 57 -25 22 -49 21 -62 -2z m58 -3 c18 -18 15 -36 -7 -48 -15 -7 -23 -6 -35 6 -12 12 -13 20 -6 35 12 22 30 25 48 7z"/> <path d="M1228 2089 c-26 -14 -23 -65 3 -79 16 -9 26 -8 45 5 29 19 32 60 5 75 -24 12 -31 12 -53 -1z m52 -14 c11 -13 7 -15 -24 -15 -23 0 -35 4 -31 10 4 6 11 8 16 5 5 -4 9 -1 9 4 0 16 16 13 30 -4z"/> <path d="M2728 2089 c-26 -14 -23 -65 3 -79 43 -24 92 43 57 78 -15 15 -37 15 -60 1z"/> <path d="M331 2061 l-22 -20 21 -11 c12 -6 20 -15 18 -20 -4 -12 -96 -80 -108 -80 -15 0 -12 -26 5 -40 11 -10 18 -9 30 4 23 22 31 20 55 -14 l21 -30 -25 -12 c-28 -12 -33 -27 -15 -45 9 -9 28 0 76 34 52 37 67 43 74 32 5 -8 9 -20 9 -26 0 -18 14 -16 40 7 25 22 21 36 -7 26 -21 -9 -24 -8 -21 2 2 4 7 6 12 4 5 -2 6 4 3 12 -3 8 3 22 14 32 10 9 19 25 19 35 0 10 9 21 20 24 33 10 13 25 -30 22 -39 -2 -50 -10 -30 -22 23 -14 4 -55 -26 -55 -12 0 -55 82 -50 95 6 18 43 20 48 3 2 -6 12 -12 22 -14 9 -1 15 3 13 9 -2 7 -8 12 -13 13 -5 0 -16 3 -24 7 -8 3 -22 8 -30 10 -10 4 -8 6 6 6 11 1 25 -4 31 -10 8 -8 17 -4 32 13 20 20 20 23 5 26 -9 2 -20 -2 -24 -9 -5 -7 -21 -13 -37 -14 -15 -1 -36 -5 -46 -10 -14 -6 -20 -2 -24 14 -7 26 -14 26 -42 2z m79 -36 c-16 -19 0 -63 35 -95 19 -18 27 -20 45 -10 16 8 21 18 17 36 -2 13 0 21 4 18 15 -9 10 -40 -8 -56 -10 -9 -43 -32 -74 -51 l-57 -36 -31 50 c-17 28 -35 47 -41 44 -6 -4 -7 2 -2 14 4 12 31 39 61 61 56 42 72 50 51 25z"/> <path d="M350 1915 c0 -8 6 -15 14 -15 9 0 12 -7 9 -21 -4 -16 -2 -20 8 -17 8 3 14 10 14 16 0 5 4 14 9 19 5 5 6 2 1 -6 -5 -9 -3 -12 6 -9 8 3 16 13 17 22 3 15 1 16 -19 6 -18 -10 -23 -9 -31 4 -11 20 -28 21 -28 1z"/> <path d="M1831 2061 l-22 -20 21 -11 c12 -6 20 -15 18 -20 -4 -12 -96 -80 -108 -80 -15 0 -12 -26 5 -40 11 -10 18 -9 30 4 23 22 31 20 55 -14 l21 -30 -25 -12 c-29 -13 -33 -30 -11 -48 11 -10 18 -9 30 4 9 9 37 30 62 47 36 25 47 29 54 18 5 -8 9 -20 9 -26 0 -18 14 -16 40 7 25 22 21 36 -7 26 -21 -9 -24 -8 -21 2 2 4 7 6 12 4 5 -2 6 4 3 12 -3 8 3 22 14 32 10 9 19 25 19 35 0 10 9 21 20 24 33 10 13 25 -30 22 -39 -2 -50 -10 -30 -22 23 -14 4 -55 -26 -55 -12 0 -55 82 -50 95 6 18 43 20 48 3 2 -6 12 -12 22 -14 9 -1 15 3 13 9 -2 7 -8 12 -13 13 -5 0 -16 3 -24 7 -8 3 -22 8 -30 10 -10 4 -8 6 6 6 11 1 25 -4 31 -10 8 -8 17 -4 32 13 20 20 20 23 5 26 -9 2 -20 -2 -24 -9 -5 -7 -21 -13 -37 -14 -15 -1 -36 -5 -46 -10 -14 -6 -20 -2 -24 14 -7 26 -14 26 -42 2z m79 -36 c-16 -19 0 -63 35 -95 19 -18 27 -20 45 -10 16 8 21 18 17 36 -2 13 0 21 4 18 15 -9 10 -40 -8 -56 -10 -9 -43 -32 -74 -51 l-57 -36 -31 50 c-17 28 -35 47 -41 44 -6 -4 -7 2 -2 14 4 12 31 39 61 61 56 42 72 50 51 25z"/> <path d="M1850 1915 c0 -8 6 -15 14 -15 9 0 12 -7 9 -21 -4 -16 -2 -20 8 -17 8 3 14 10 14 16 0 5 4 14 9 19 5 5 6 2 1 -6 -5 -9 -3 -12 6 -9 8 3 16 13 17 22 3 15 1 16 -19 6 -18 -10 -23 -9 -31 4 -11 20 -28 21 -28 1z"/> <path d="M720 2041 c0 -6 5 -13 10 -16 15 -9 12 -25 -4 -25 -8 0 -16 7 -20 15 -9 24 -26 17 -26 -9 0 -25 36 -60 51 -50 9 5 35 -36 31 -50 -4 -13 19 -36 35 -36 10 0 13 6 9 16 -4 12 -1 14 14 9 32 -10 25 28 -10 53 -19 14 -30 32 -30 47 0 13 -7 31 -16 39 -17 18 -44 21 -44 7z m50 -48 c0 -15 12 -37 31 -54 27 -26 29 -29 11 -29 -11 0 -23 -6 -25 -12 -3 -7 -6 -4 -7 7 -1 25 -33 65 -52 65 -16 0 -38 20 -38 34 0 6 5 5 12 -2 7 -7 21 -12 31 -12 16 0 18 5 12 27 -5 23 -4 25 9 14 9 -8 16 -25 16 -38z"/> <path d="M2220 2041 c0 -6 5 -13 10 -16 15 -9 12 -25 -4 -25 -8 0 -16 7 -20 15 -9 24 -26 17 -26 -9 0 -25 36 -60 51 -50 9 5 35 -36 31 -50 -4 -13 19 -36 35 -36 10 0 13 6 9 16 -4 12 -1 14 14 9 32 -10 25 28 -10 53 -19 14 -30 32 -30 47 0 13 -7 31 -16 39 -17 18 -44 21 -44 7z m51 -52 c4 -19 20 -43 36 -56 26 -21 27 -23 6 -23 -12 0 -24 -6 -26 -12 -3 -7 -6 -4 -7 7 -1 25 -33 65 -52 65 -16 0 -38 20 -38 34 0 6 5 5 12 -2 7 -7 21 -12 31 -12 15 0 18 5 14 21 -3 12 -1 19 6 16 6 -2 15 -19 18 -38z"/> <path d="M954 2003 c-14 -15 -28 -41 -31 -57 -5 -25 -8 -27 -18 -12 -7 9 -16 16 -20 16 -5 0 0 -9 10 -20 10 -11 23 -30 29 -43 7 -12 16 -22 21 -22 21 0 33 -16 39 -48 3 -18 15 -43 26 -55 11 -12 20 -26 20 -31 0 -18 18 -21 34 -6 14 15 13 18 -12 40 -15 14 -22 25 -15 25 6 0 15 -4 18 -10 3 -5 17 -10 30 -10 14 0 41 -18 70 -45 38 -37 50 -44 61 -34 8 6 14 16 14 20 0 11 -50 33 -65 30 -5 -2 -7 1 -3 5 4 4 3 13 -4 21 -9 11 -8 18 4 29 14 14 19 11 50 -25 34 -40 35 -41 52 -22 17 19 17 20 -12 35 -16 8 -33 12 -37 8 -5 -4 -5 -2 -2 4 4 6 -2 19 -13 29 -11 10 -20 26 -20 35 0 10 -9 29 -20 43 -21 26 -28 63 -10 52 6 -4 7 -11 4 -17 -5 -8 -1 -9 10 -5 9 4 15 3 12 -1 -2 -4 2 -16 10 -27 13 -18 15 -18 31 -2 9 9 15 18 12 19 -34 23 -92 48 -112 48 -16 0 -33 10 -45 27 -29 39 -84 42 -118 6z m87 2 c24 -13 28 -19 19 -35 -14 -25 -27 -33 -35 -19 -5 7 -16 3 -31 -12 -18 -17 -27 -20 -36 -11 -8 8 -7 17 6 36 16 26 51 35 58 16 2 -6 9 -6 17 0 12 7 9 10 -12 15 -34 9 -52 2 -72 -28 -12 -19 -13 -30 -5 -51 l10 -27 26 30 c14 17 30 28 35 25 5 -3 -5 -21 -23 -39 -22 -24 -35 -31 -43 -25 -7 6 -14 8 -16 6 -2 -2 -5 13 -7 34 -2 29 4 45 24 69 29 35 42 37 85 16z m59 -50 c9 -10 9 -15 1 -15 -12 0 -11 -22 3 -31 4 -4 -8 -25 -28 -46 -20 -22 -36 -44 -36 -47 0 -4 17 13 38 38 20 24 44 46 52 47 11 1 10 2 -2 6 -18 5 -26 33 -9 33 17 0 53 -89 47 -115 -8 -30 -40 -49 -75 -42 -63 13 -66 13 -63 -7 3 -17 2 -18 -12 -3 -20 20 -20 27 0 27 8 0 13 4 9 10 -3 5 -11 8 -18 6 -7 -1 -8 -1 -4 2 4 2 3 9 -2 16 -8 9 -2 21 19 41 24 23 30 25 30 12 0 -18 15 -23 25 -8 3 6 -2 14 -10 19 -14 7 -13 11 5 35 12 15 18 27 13 27 -4 0 -17 -13 -28 -29 -10 -16 -23 -27 -27 -25 -5 3 -7 0 -6 -6 2 -6 -8 -19 -22 -28 -34 -24 -19 0 34 55 46 48 49 49 66 28z"/> <path d="M2461 2013 c-12 -10 -28 -36 -36 -58 -10 -31 -15 -36 -20 -22 -4 9 -12 17 -18 17 -5 0 -2 -9 8 -20 10 -11 23 -30 29 -43 7 -12 16 -22 21 -22 21 0 33 -16 39 -48 3 -18 15 -43 26 -55 11 -12 20 -26 20 -31 0 -18 18 -21 34 -5 15 14 14 17 -6 34 -17 13 -25 15 -30 7 -6 -9 -8 -9 -8 0 0 18 20 27 33 14 6 -6 21 -11 33 -11 13 0 42 -19 69 -45 38 -37 50 -44 61 -34 8 6 14 16 14 20 0 11 -50 33 -65 30 -5 -2 -7 1 -3 5 4 4 3 13 -4 21 -9 11 -8 18 4 29 14 14 19 11 50 -25 33 -39 36 -40 51 -23 10 10 14 22 10 25 -12 12 -22 7 -17 -8 4 -8 1 -15 -4 -15 -6 0 -12 10 -14 23 -2 12 -9 21 -16 19 -8 -1 -11 2 -8 6 3 5 -3 17 -14 27 -11 10 -20 26 -20 35 0 10 -9 29 -20 43 -21 26 -28 63 -10 52 6 -4 7 -11 4 -17 -5 -8 -1 -9 10 -5 9 4 15 3 12 -1 -2 -4 2 -16 10 -27 13 -18 15 -18 31 -2 9 9 15 18 12 19 -34 23 -92 48 -112 48 -16 0 -33 10 -45 27 -24 33 -80 41 -111 16z m80 -8 c24 -13 28 -19 19 -35 -14 -25 -27 -33 -35 -19 -5 7 -16 3 -31 -12 -18 -17 -27 -20 -36 -11 -8 8 -7 17 6 36 16 25 56 36 56 16 0 -5 8 -6 17 -3 15 6 14 8 -5 16 -51 23 -102 -26 -82 -79 l10 -25 26 30 c14 17 30 28 35 25 5 -3 -5 -21 -23 -39 -22 -24 -35 -31 -43 -25 -7 6 -14 8 -16 6 -2 -2 -5 13 -7 34 -2 29 4 45 24 69 29 35 42 37 85 16z m59 -50 c9 -10 9 -15 1 -15 -12 0 -11 -22 3 -31 4 -4 -9 -25 -29 -48 -29 -32 -35 -45 -27 -53 9 -9 19 -5 43 18 17 16 35 38 41 49 5 11 -8 0 -30 -25 -22 -25 -43 -42 -47 -38 -10 10 55 86 75 88 11 2 11 3 -2 7 -10 2 -18 11 -18 19 0 28 18 13 40 -33 17 -36 20 -54 13 -73 -11 -33 -54 -48 -95 -32 -21 8 -36 8 -42 2 -13 -13 -26 -13 -26 0 0 6 7 10 16 10 8 0 13 4 9 10 -3 5 -11 8 -18 6 -7 -1 -8 -1 -4 2 4 2 3 9 -2 16 -8 9 -2 21 19 41 24 23 30 25 30 12 0 -18 15 -23 25 -8 3 6 -2 14 -10 19 -14 7 -13 11 5 35 12 15 17 27 12 27 -6 0 -13 -7 -16 -16 -4 -9 -9 -14 -13 -11 -7 7 15 37 27 37 4 0 13 -7 20 -15z m-50 -33 c0 -9 -36 -44 -59 -57 -18 -10 -7 10 22 43 21 22 37 29 37 14z"/> <path d="M637 1812 c-22 -24 -21 -35 2 -56 26 -23 52 -17 70 16 13 22 13 29 2 42 -18 21 -54 20 -74 -2z"/> <path d="M2137 1812 c-22 -24 -21 -35 2 -56 26 -23 52 -17 70 16 13 22 13 29 2 42 -18 21 -54 20 -74 -2z"/> <path d="M150 1762 c-28 -10 -44 -35 -46 -73 -1 -29 3 -39 14 -39 8 0 13 -3 9 -6 -12 -12 20 -33 47 -30 30 4 69 43 62 63 -3 7 0 13 7 13 8 0 6 4 -3 10 -8 5 -11 10 -7 10 4 0 -4 11 -18 26 -14 14 -29 23 -34 19 -5 -3 -11 -1 -13 3 -1 5 -10 7 -18 4z m9 -61 c18 -18 18 -18 -5 -18 -17 0 -24 5 -24 18 0 11 2 19 5 19 3 0 13 -8 24 -19z"/> <path d="M794 1758 c-4 -6 -8 -26 -9 -42 -1 -17 -5 -43 -10 -58 -6 -23 -4 -28 12 -28 10 0 27 11 37 25 10 14 25 25 32 25 11 0 34 29 34 44 0 7 -66 46 -78 46 -6 0 -14 -5 -18 -12z m46 -18 c0 -4 -7 -13 -16 -21 -14 -11 -14 -13 1 -22 14 -8 13 -12 -10 -34 -14 -14 -28 -23 -32 -20 -3 4 -2 7 3 7 6 0 10 10 11 23 0 12 4 30 8 40 4 11 3 17 -5 17 -10 0 -10 3 0 14 11 14 40 11 40 -4z m32 -14 c6 4 6 -2 -1 -14 -7 -13 -17 -19 -26 -16 -12 5 -12 10 -3 27 7 14 13 17 16 9 2 -6 8 -9 14 -6z"/> <path d="M1381 1748 c-12 -31 4 -58 34 -58 31 0 50 32 35 60 -15 28 -58 26 -69 -2z m40 -4 c-18 -13 -20 -18 -10 -25 9 -5 17 -2 21 9 7 14 7 14 5 -3 -3 -27 -34 -31 -42 -6 -8 27 1 41 28 41 21 0 21 0 -2 -16z"/> <path d="M1650 1762 c-28 -10 -44 -35 -46 -73 -1 -28 3 -39 13 -39 8 0 11 -4 8 -10 -3 -5 1 -10 10 -10 9 0 13 -4 10 -10 -4 -6 6 -8 25 -6 33 4 74 42 66 63 -3 7 0 13 7 13 8 0 6 4 -3 10 -8 5 -11 10 -7 10 4 0 -4 11 -18 26 -14 14 -29 23 -34 19 -5 -3 -11 -1 -13 3 -1 5 -10 7 -18 4z m9 -61 c18 -18 18 -18 -5 -18 -17 0 -24 5 -24 18 0 11 2 19 5 19 3 0 13 -8 24 -19z"/> <path d="M2294 1758 c-4 -6 -8 -26 -9 -42 -1 -17 -5 -43 -10 -58 -6 -23 -4 -28 12 -28 10 0 27 11 37 25 10 14 25 25 32 25 11 0 34 29 34 44 0 7 -66 46 -78 46 -6 0 -14 -5 -18 -12z m46 -18 c0 -4 -7 -13 -16 -21 -14 -11 -14 -13 1 -22 14 -8 13 -12 -10 -34 -14 -14 -28 -23 -32 -20 -3 4 -2 7 3 7 6 0 10 10 11 23 0 12 4 30 8 40 4 11 3 17 -5 17 -10 0 -10 3 0 14 11 14 40 11 40 -4z m32 -14 c6 4 6 -2 -1 -14 -7 -13 -17 -19 -26 -16 -12 5 -12 10 -3 27 7 14 13 17 16 9 2 -6 8 -9 14 -6z"/> <path d="M2881 1748 c-12 -31 4 -58 34 -58 31 0 50 32 35 60 -15 28 -58 26 -69 -2z m39 -6 c-20 -16 -21 -19 -7 -25 11 -4 17 -1 17 8 0 8 5 15 10 15 7 0 7 -6 0 -20 -14 -26 -37 -26 -45 0 -8 26 1 40 27 40 20 0 20 -1 -2 -18z"/> <path d="M520 1695 c-7 -8 -9 -15 -4 -16 5 0 -9 -6 -30 -12 -46 -14 -94 -69 -105 -119 -9 -40 7 -91 33 -101 24 -10 19 -32 -14 -65 l-30 -31 26 -20 c33 -26 66 -28 62 -3 -1 9 3 32 11 49 11 27 16 31 31 23 33 -18 79 -11 105 14 33 33 59 124 45 161 -6 15 -13 26 -16 23 -2 -3 0 -17 5 -31 15 -40 11 -41 -99 -12 -20 5 -22 5 -10 -5 13 -10 13 -11 0 -7 -8 2 -15 10 -15 18 0 8 -9 13 -18 13 -10 -1 -16 1 -13 4 4 3 -3 16 -15 28 -25 26 -19 40 19 49 29 6 94 -16 123 -41 13 -12 18 -12 35 0 16 12 17 17 6 28 -11 11 -15 10 -23 -4 -8 -15 -12 -15 -48 5 -26 14 -37 26 -34 38 6 23 -12 32 -27 14z m-17 -181 c-2 -7 -11 -10 -19 -7 -8 3 -14 0 -14 -6 0 -6 4 -11 10 -11 5 0 7 -7 4 -15 -8 -21 -28 -19 -49 5 -16 18 -17 25 -6 60 l12 40 33 -27 c19 -14 32 -32 29 -39z m115 8 c9 -6 10 -15 3 -33 -5 -13 -10 -18 -10 -10 -1 8 -8 23 -18 33 -13 14 -13 18 -2 18 8 0 20 -4 27 -8z m-35 -22 c5 -4 1 -22 -8 -40 -15 -29 -20 -32 -52 -27 -42 7 -45 10 -37 30 3 9 12 13 20 10 8 -3 14 0 14 6 0 6 -4 11 -10 11 -5 0 -7 7 -3 16 4 11 13 13 37 8 17 -3 35 -10 39 -14z m-123 -111 c-21 -39 -50 -60 -45 -31 2 9 4 21 4 26 1 4 8 5 17 2 14 -5 15 -4 4 9 -9 11 -9 15 -1 15 7 0 10 4 7 8 -2 4 4 8 14 8 18 0 18 -1 0 -37z"/> <path d="M2020 1695 c-7 -8 -9 -15 -4 -16 5 0 -9 -6 -30 -12 -46 -14 -94 -69 -105 -119 -9 -40 7 -91 33 -101 24 -10 19 -32 -14 -65 l-30 -31 26 -20 c33 -26 66 -28 62 -3 -1 9 3 32 11 49 11 27 16 31 31 23 33 -18 79 -11 105 14 33 33 59 124 45 161 -6 15 -13 26 -16 23 -2 -3 0 -17 5 -31 13 -33 4 -38 -45 -25 -21 5 -49 11 -61 12 -12 0 -21 4 -20 7 1 3 -13 18 -30 33 -40 34 -41 43 -5 57 31 12 89 -3 127 -33 19 -14 25 -15 40 -4 10 7 15 18 11 24 -9 15 -26 16 -26 1 0 -5 5 -7 12 -3 6 4 8 3 5 -4 -9 -13 -22 -10 -68 13 -26 12 -35 23 -32 35 6 24 -12 33 -27 15z m-59 -102 c12 -14 12 -16 -1 -11 -8 3 -23 1 -33 -4 -16 -8 -17 -7 -7 11 13 25 23 26 41 4z m42 -79 c-2 -7 -11 -10 -19 -7 -8 3 -14 0 -14 -6 0 -6 4 -11 10 -11 5 0 7 -7 4 -15 -8 -21 -28 -19 -49 5 -16 18 -17 25 -6 60 l12 40 33 -27 c19 -14 32 -32 29 -39z m117 6 c10 -6 12 -12 4 -20 -7 -7 -16 -5 -29 10 -14 15 -15 20 -4 20 8 0 21 -5 29 -10z m-37 -20 c5 -4 1 -22 -7 -39 -17 -32 -42 -39 -76 -21 -22 12 -16 42 6 33 8 -3 14 0 14 6 0 6 -4 11 -10 11 -5 0 -7 7 -3 16 4 11 13 13 37 8 17 -3 35 -10 39 -14z m-124 -112 c-11 -21 -24 -38 -30 -38 -6 0 -7 -5 -3 -12 4 -6 3 -8 -4 -5 -5 4 -9 15 -7 25 2 9 4 21 4 26 1 4 8 5 17 2 14 -5 15 -4 4 9 -9 11 -9 15 -1 15 7 0 10 4 7 8 -2 4 4 8 14 8 18 0 17 -2 -1 -38z"/> <path d="M1228 1623 c0 -4 -2 -12 -3 -18 -2 -5 -3 -18 -4 -27 -1 -11 -9 -18 -21 -18 -18 0 -20 -7 -20 -59 0 -52 -3 -61 -25 -75 -14 -10 -30 -28 -36 -42 -10 -29 -1 -54 12 -33 6 10 9 11 9 2 0 -7 5 -13 10 -13 6 0 10 14 10 30 0 17 5 30 10 30 6 0 10 -20 10 -45 0 -48 25 -85 56 -85 17 0 84 62 84 77 0 5 -22 22 -50 38 -45 27 -50 33 -50 66 0 63 11 99 30 99 12 0 19 10 23 33 2 17 4 33 3 33 -8 8 -46 13 -48 7z m-16 -140 c-2 -38 -8 -72 -12 -77 -10 -10 -30 0 -30 15 0 6 5 7 10 4 6 -4 10 18 10 59 0 47 4 66 13 66 10 0 12 -17 9 -67z m72 -117 c11 -9 16 -21 12 -32 -6 -15 -8 -15 -31 0 -15 10 -26 12 -30 6 -3 -6 1 -10 9 -10 20 0 21 -26 2 -33 -8 -3 -22 1 -33 9 -10 9 -12 13 -5 9 7 -4 12 0 12 10 0 11 -5 15 -15 11 -11 -4 -15 2 -15 22 0 55 30 58 94 8z"/> <path d="M2728 1623 c0 -4 -2 -12 -3 -18 -2 -5 -3 -18 -4 -27 -1 -11 -9 -18 -21 -18 -18 0 -20 -7 -20 -59 0 -52 -3 -61 -25 -75 -14 -10 -30 -28 -36 -42 -10 -29 -1 -54 12 -33 6 10 9 11 9 2 0 -7 5 -13 10 -13 6 0 10 14 10 30 0 17 5 30 10 30 6 0 10 -20 10 -45 0 -46 25 -85 54 -85 23 0 68 42 82 77 18 43 28 42 21 -2 -3 -19 -1 -37 4 -40 5 -4 9 2 10 12 0 10 3 13 6 6 10 -25 23 -12 23 22 0 21 -7 42 -18 53 -17 16 -17 21 -3 71 13 50 13 55 -3 67 -13 9 -16 20 -11 42 5 26 3 30 -20 34 -27 6 -29 4 -40 -45 -5 -25 -3 -28 17 -25 36 5 59 -22 49 -57 -7 -23 -9 -25 -10 -9 -1 21 -28 41 -39 29 -3 -3 0 -5 6 -5 6 0 9 -8 6 -17 -5 -15 -4 -16 5 -3 9 13 11 13 11 -2 0 -9 -4 -28 -10 -43 -7 -17 -7 -24 0 -20 13 8 13 -11 0 -35 -10 -18 -12 -18 -55 8 -39 24 -44 31 -45 63 0 62 11 99 30 99 12 0 19 10 23 33 2 17 4 33 3 33 -8 8 -46 13 -48 7z m-16 -140 c-2 -38 -8 -72 -12 -77 -10 -10 -30 0 -30 15 0 6 5 7 10 4 6 -4 10 18 10 59 0 47 4 66 13 66 10 0 12 -17 9 -67z m72 -117 c11 -9 16 -21 12 -32 -6 -15 -8 -15 -31 0 -15 10 -26 12 -30 6 -3 -6 1 -10 10 -10 10 0 15 -7 13 -17 -4 -23 -20 -26 -43 -7 -11 8 -14 13 -7 9 7 -4 12 0 12 10 0 11 -5 15 -15 11 -11 -4 -15 2 -15 22 0 55 30 58 94 8z"/> <path d="M523 1604 c-3 -8 -1 -20 5 -26 8 -8 9 -4 5 12 -5 21 -4 21 17 10 18 -10 20 -14 9 -22 -12 -8 -12 -9 0 -6 25 7 23 24 -4 36 -21 10 -27 9 -32 -4z"/> <path d="M1295 1612 c-12 -13 -3 -19 23 -16 15 2 19 1 7 -2 -21 -6 -45 -31 -45 -47 0 -4 10 -7 23 -5 35 5 58 -22 48 -57 -7 -23 -9 -25 -10 -9 -1 21 -28 41 -39 29 -3 -3 0 -5 6 -5 6 0 9 -8 6 -17 -5 -15 -4 -16 5 -3 9 13 11 13 11 -2 0 -9 -4 -28 -10 -43 -7 -19 -7 -24 1 -19 9 5 10 -1 5 -20 -5 -20 -4 -26 5 -20 9 5 11 -2 6 -29 -3 -20 -1 -39 4 -42 5 -4 9 2 10 12 0 10 3 13 6 6 10 -25 23 -12 23 22 0 25 -7 43 -25 59 -14 13 -25 30 -25 37 0 11 2 12 9 1 5 -9 12 2 21 34 12 42 12 48 -4 60 -13 9 -16 20 -11 42 5 26 3 30 -19 34 -14 3 -28 3 -31 0z"/> <path d="M2023 1604 c-3 -8 -1 -20 5 -26 8 -8 9 -4 5 12 -5 21 -4 21 17 10 18 -10 20 -14 9 -22 -12 -8 -12 -9 0 -6 25 7 23 24 -4 36 -21 10 -27 9 -32 -4z"/> <path d="M930 1601 c0 -7 -6 -11 -15 -7 -8 3 -15 1 -15 -5 0 -6 -4 -7 -10 -4 -5 3 -10 -1 -10 -10 0 -10 -5 -13 -12 -9 -7 5 -9 2 -5 -9 3 -9 1 -18 -6 -21 -9 -3 -8 -8 3 -15 10 -7 11 -11 2 -11 -10 0 -10 -4 0 -19 7 -11 16 -17 20 -15 4 3 8 0 8 -7 0 -7 3 -9 7 -6 3 4 11 3 17 -2 15 -13 76 14 76 33 0 8 6 17 13 19 8 4 8 8 2 14 -5 4 -10 14 -11 21 -2 29 -5 33 -14 27 -5 -3 -10 1 -10 10 0 9 -5 13 -11 9 -6 -3 -15 0 -20 7 -7 12 -9 12 -9 0z m20 -46 c-7 -9 -21 -13 -30 -10 -13 4 -17 1 -16 -11 0 -9 -5 -19 -11 -21 -7 -3 -13 1 -13 8 0 22 32 49 58 49 21 0 23 -2 12 -15z m30 -23 c0 -12 -29 -49 -30 -37 0 6 -4 4 -9 -4 -5 -8 -16 -11 -26 -8 -24 10 -8 28 21 23 14 -3 22 -1 19 5 -4 5 -14 9 -23 10 -14 0 -13 2 3 9 26 11 45 12 45 2z"/> <path d="M2430 1601 c0 -7 -6 -11 -15 -7 -8 3 -15 1 -15 -5 0 -6 -4 -7 -10 -4 -5 3 -10 -1 -10 -10 0 -10 -5 -13 -12 -9 -7 5 -9 2 -5 -9 3 -9 1 -18 -6 -21 -9 -3 -8 -8 3 -15 10 -7 11 -11 2 -11 -10 0 -10 -4 0 -19 7 -11 16 -17 20 -15 4 3 8 0 8 -7 0 -7 3 -9 7 -6 3 4 11 3 17 -2 15 -13 76 14 76 34 0 8 5 15 11 15 6 0 7 5 2 13 -4 6 -8 17 -9 22 0 6 -2 16 -2 23 -1 7 -6 10 -12 7 -5 -3 -10 1 -10 10 0 9 -5 13 -11 9 -6 -3 -15 0 -20 7 -7 12 -9 12 -9 0z m20 -46 c-7 -9 -21 -13 -30 -10 -13 4 -17 1 -16 -11 0 -9 -5 -19 -11 -21 -7 -3 -13 1 -13 8 0 22 32 49 58 49 21 0 23 -2 12 -15z m30 -23 c0 -12 -29 -49 -30 -37 0 6 -4 4 -9 -4 -5 -8 -16 -11 -26 -8 -24 10 -8 28 21 23 14 -3 22 -1 19 5 -4 5 -14 9 -23 10 -14 0 -13 2 3 9 26 11 45 12 45 2z"/> <path d="M19 1540 l-24 -21 27 16 c36 22 66 11 84 -31 19 -44 19 -44 -17 -44 -23 0 -30 4 -27 18 3 20 -9 42 -24 42 -6 0 -8 -12 -5 -29 5 -25 3 -30 -16 -34 -12 -3 7 -4 43 -3 63 1 65 2 62 26 -3 33 -34 74 -59 78 -11 2 -31 -7 -44 -18z"/> <path d="M1523 1548 c-24 -12 -56 -78 -44 -91 5 -4 39 -7 77 -5 67 3 69 4 66 28 -3 33 -34 75 -58 77 -10 1 -29 -3 -41 -9z m67 -18 c11 -11 20 -24 20 -29 0 -5 3 -16 6 -25 5 -13 -1 -16 -26 -16 -24 0 -31 4 -28 18 3 20 -9 42 -24 42 -6 0 -8 -12 -4 -30 5 -27 3 -30 -19 -30 -33 0 -33 33 0 65 29 30 49 31 75 5z"/> <path d="M1245 1510 c-4 -6 -4 -25 0 -43 5 -24 4 -28 -4 -17 -9 13 -11 13 -11 -1 0 -17 56 -46 67 -35 3 3 -1 6 -11 6 -13 0 -15 4 -6 19 5 11 10 30 9 43 -1 16 -4 12 -11 -14 -6 -21 -14 -38 -19 -38 -6 0 -5 8 1 19 5 11 10 28 10 38 0 15 -2 16 -10 3 -8 -13 -10 -13 -10 2 0 9 10 18 23 21 22 4 22 4 0 6 -12 0 -25 -4 -28 -9z"/> <path d="M2745 1510 c-4 -6 -4 -25 0 -43 5 -24 4 -28 -4 -17 -9 13 -11 13 -11 -1 0 -17 56 -46 67 -35 3 3 -1 6 -11 6 -13 0 -15 4 -6 19 5 11 10 30 9 43 -1 16 -4 12 -11 -14 -6 -21 -14 -38 -19 -38 -6 0 -5 8 1 19 5 11 10 28 10 38 0 15 -2 16 -10 3 -8 -13 -10 -13 -10 2 0 9 10 18 23 21 22 4 22 4 0 6 -12 0 -25 -4 -28 -9z"/> <path d="M206 1444 c-30 -29 -10 -74 33 -74 14 0 41 29 41 45 0 18 -27 45 -45 45 -7 0 -21 -7 -29 -16z m58 -17 c13 -21 -15 -53 -38 -44 -26 10 -31 38 -11 54 22 16 35 13 49 -10z"/> <path d="M1706 1444 c-30 -29 -10 -74 33 -74 14 0 41 29 41 45 0 7 -7 21 -16 29 -8 9 -22 16 -29 16 -7 0 -21 -7 -29 -16z m58 -16 c8 -14 7 -21 -6 -34 -30 -30 -75 9 -48 42 16 18 39 15 54 -8z"/> <path d="M828 1367 c-3 -19 -8 -22 -40 -19 -20 1 -39 -2 -43 -8 -5 -8 -13 -6 -25 5 -15 14 -18 14 -23 1 -4 -9 1 -17 14 -21 18 -6 18 -8 3 -34 -13 -22 -22 -27 -42 -23 -18 4 -23 1 -20 -9 3 -8 13 -13 22 -13 9 1 16 -6 16 -17 0 -10 11 -26 25 -35 23 -15 24 -19 12 -38 -12 -18 -12 -23 -1 -34 20 -18 44 -15 44 7 0 11 4 22 10 26 10 6 111 -41 122 -58 4 -7 12 -6 22 2 17 14 22 41 8 41 -5 0 -16 6 -26 13 -17 13 -17 15 -2 45 12 23 21 30 34 25 15 -6 15 -5 3 10 -8 10 -11 20 -8 23 6 6 25 -25 25 -41 1 -19 21 -16 32 5 6 12 10 22 8 23 -2 1 -33 17 -70 35 -71 33 -78 41 -53 62 11 9 12 15 2 24 -25 25 -46 26 -49 3z m32 -21 c0 -8 -8 -17 -17 -21 -14 -5 -8 -12 30 -36 27 -16 47 -33 45 -37 -2 -4 -14 -28 -26 -54 -13 -26 -27 -50 -32 -53 -9 -6 -100 35 -100 45 0 4 11 17 25 30 14 13 25 18 25 12 0 -7 7 -12 15 -12 20 0 19 19 -1 27 -11 4 -14 14 -9 37 4 25 0 21 -22 -21 -18 -35 -33 -53 -45 -53 -28 0 -33 28 -11 68 16 31 25 37 51 37 31 1 46 8 48 26 3 17 4 19 14 19 6 0 10 -6 10 -14z"/> <path d="M830 1271 c0 -6 5 -13 12 -17 7 -4 8 -3 4 4 -4 7 -2 12 3 12 6 0 11 -6 11 -14 0 -15 24 -28 34 -19 11 12 6 20 -19 31 -31 14 -45 15 -45 3z"/> <path d="M2328 1367 c-3 -19 -8 -22 -40 -19 -20 1 -39 -2 -43 -8 -5 -8 -13 -6 -25 5 -15 14 -18 14 -23 1 -4 -9 1 -17 13 -21 17 -6 18 -8 3 -34 -13 -21 -22 -27 -41 -23 -18 4 -23 1 -20 -9 3 -8 13 -13 22 -13 9 1 16 -6 16 -17 0 -10 11 -26 25 -35 23 -15 24 -19 12 -38 -12 -18 -12 -23 -1 -34 20 -18 44 -15 44 7 0 11 4 22 10 26 10 6 111 -41 122 -58 4 -7 12 -6 22 2 17 14 22 41 8 41 -5 0 -16 6 -26 13 -17 13 -17 15 -2 45 11 22 21 29 32 25 14 -5 15 -3 4 18 -9 18 -9 21 -1 13 7 -6 14 -20 15 -30 4 -26 23 -28 36 -4 6 12 10 22 8 23 -2 1 -33 17 -70 35 -71 33 -78 41 -53 62 11 9 12 15 2 24 -25 25 -46 26 -49 3z m32 -21 c0 -8 -8 -17 -17 -21 -14 -5 -8 -12 30 -36 27 -16 47 -33 45 -37 -2 -4 -14 -28 -26 -54 -13 -26 -26 -49 -30 -52 -9 -5 -102 34 -102 44 0 3 11 17 25 30 14 13 25 18 25 12 0 -7 7 -12 15 -12 19 0 19 19 0 26 -14 6 -13 33 2 74 6 14 9 23 12 35 3 12 21 4 21 -9z m-62 -35 c22 -13 -26 -103 -53 -99 -27 4 -30 36 -5 76 20 32 34 38 58 23z"/> <path d="M2330 1271 c0 -6 5 -13 12 -17 7 -4 8 -3 4 4 -4 7 -2 12 3 12 6 0 11 -6 11 -14 0 -15 24 -28 34 -19 11 12 6 20 -19 31 -31 14 -45 15 -45 3z"/> <path d="M123 1310 c-27 -11 -27 -14 -9 -43 8 -12 17 -39 20 -59 4 -20 12 -39 19 -41 7 -3 5 -6 -5 -6 -21 -1 -58 66 -58 104 0 25 -13 31 -45 19 -14 -6 -14 -9 -2 -23 19 -22 37 -99 37 -157 0 -42 2 -46 13 -30 18 25 118 58 134 44 23 -18 14 8 -10 33 -13 13 -31 43 -41 66 -10 23 -22 41 -25 38 -4 -2 -5 12 -3 31 2 19 3 34 1 33 -2 0 -14 -4 -26 -9z m-25 -117 c18 -33 19 -42 7 -46 -9 -4 -12 0 -10 14 2 10 0 19 -4 19 -4 0 -8 6 -8 13 0 6 -4 21 -8 32 -13 31 0 14 23 -32z m102 -43 c16 -10 21 -7 -59 -35 -24 -8 -46 -13 -49 -11 -8 9 11 28 42 42 37 16 46 17 66 4z"/> <path d="M1623 1310 c-27 -11 -27 -14 -9 -43 8 -12 17 -39 20 -59 4 -20 12 -39 19 -41 7 -3 5 -6 -5 -6 -21 -1 -58 66 -58 104 0 25 -13 31 -45 19 -14 -6 -14 -9 -2 -23 19 -22 37 -99 37 -157 0 -42 2 -46 13 -30 18 25 118 58 134 44 23 -18 14 8 -10 33 -13 13 -31 43 -41 66 -10 23 -22 41 -25 38 -4 -2 -5 12 -3 31 2 19 3 34 1 33 -2 0 -14 -4 -26 -9z m-24 -117 c16 -33 18 -41 6 -37 -8 4 -12 10 -9 15 3 5 1 9 -4 9 -5 0 -9 6 -9 13 0 6 -4 21 -8 32 -13 32 1 14 24 -32z m101 -43 c8 -5 12 -10 10 -12 -11 -8 -114 -37 -118 -33 -8 8 11 27 42 41 37 16 46 17 66 4z"/> <path d="M1390 1215 c-18 -22 -8 -50 19 -50 32 0 49 28 32 49 -17 20 -35 20 -51 1z"/> <path d="M2890 1215 c-18 -22 -8 -50 19 -50 32 0 49 28 32 49 -17 20 -35 20 -51 1z"/> <path d="M445 1201 c-3 -10 -3 -25 0 -33 3 -8 -1 -31 -10 -51 -14 -35 -14 -37 3 -37 11 0 26 8 35 18 21 23 22 33 3 26 -17 -7 -31 12 -15 21 6 4 16 2 22 -4 20 -20 45 -12 51 15 4 15 6 28 4 29 -10 8 -69 35 -77 35 -5 0 -12 -8 -16 -19z"/> <path d="M1945 1201 c-3 -10 -3 -25 0 -33 3 -8 -1 -31 -10 -51 -15 -35 -14 -37 4 -37 11 0 28 11 39 25 11 14 25 25 31 25 10 0 31 31 31 47 0 9 -63 43 -80 43 -5 0 -11 -8 -15 -19z"/> <path d="M1079 1179 c-14 -14 -19 -28 -15 -45 6 -24 -21 -64 -44 -64 -5 0 -10 -9 -10 -19 0 -11 5 -23 10 -26 6 -3 10 -1 10 4 0 6 4 11 9 11 5 0 7 -9 4 -20 -4 -13 0 -20 10 -20 19 0 41 26 34 43 -6 15 10 37 38 53 27 15 39 38 31 60 -7 18 -8 18 -25 -4 -21 -29 -36 -17 -17 14 25 37 -1 47 -35 13z m17 -15 c-4 -9 -1 -23 5 -31 10 -11 15 -11 30 3 11 10 19 12 19 6 0 -6 -7 -17 -16 -24 -47 -38 -65 -60 -60 -73 3 -8 1 -17 -3 -20 -5 -3 -12 2 -15 11 -4 9 -13 14 -21 10 -8 -3 -15 -1 -15 4 0 6 4 10 10 10 19 0 51 45 46 64 -3 11 -1 28 5 38 12 22 23 24 15 2z"/> <path d="M2579 1179 c-14 -14 -19 -28 -15 -45 6 -24 -21 -64 -44 -64 -5 0 -10 -9 -10 -19 0 -11 5 -23 10 -26 6 -3 10 -1 10 4 0 6 4 11 9 11 5 0 7 -9 4 -20 -4 -13 0 -20 10 -20 19 0 41 26 34 43 -6 15 10 37 38 53 27 15 39 38 31 60 -7 18 -8 18 -25 -4 -21 -29 -36 -17 -17 14 25 37 -1 47 -35 13z m17 -15 c-4 -9 -1 -23 5 -31 10 -11 15 -11 30 3 11 10 19 12 19 6 0 -6 -7 -17 -16 -24 -47 -38 -65 -60 -60 -73 3 -8 1 -17 -3 -20 -5 -3 -12 2 -15 11 -4 9 -13 14 -21 10 -8 -3 -15 -1 -15 4 0 6 4 10 10 10 19 0 50 44 48 70 -2 25 7 50 19 50 3 0 2 -7 -1 -16z"/> <path d="M256 1113 c5 -31 3 -35 -6 -23 -10 13 -11 12 -5 -5 21 -59 23 -75 12 -75 -7 0 -38 -11 -70 -24 l-59 -24 -10 30 c-10 29 -12 30 -25 13 -7 -11 -13 -15 -14 -9 -5 67 -16 88 -38 75 -19 -12 12 -68 49 -89 30 -17 58 -62 40 -62 -6 0 -10 -7 -10 -15 0 -8 5 -15 11 -15 5 0 7 6 3 13 -6 9 -5 9 7 0 15 -12 39 -4 42 13 1 5 5 8 9 7 5 -2 8 2 8 7 0 13 -6 13 -31 0 -15 -9 -19 -7 -19 5 0 9 6 15 13 13 6 -1 32 8 56 20 24 12 48 19 53 16 5 -4 9 4 7 17 -1 13 2 35 8 49 16 39 5 100 -17 100 -16 0 -18 -6 -14 -37z"/> <path d="M1756 1113 c5 -31 3 -35 -6 -23 -10 13 -11 12 -5 -5 21 -59 23 -75 12 -75 -7 0 -38 -11 -70 -24 l-59 -24 -10 30 c-10 29 -12 30 -25 13 -7 -11 -13 -15 -14 -9 -5 67 -16 88 -38 75 -19 -12 12 -68 50 -89 16 -10 32 -25 35 -35 5 -15 8 -16 20 -6 11 9 18 9 26 1 9 -9 9 -12 0 -13 -7 -1 -16 -3 -22 -4 -5 -1 -14 -3 -20 -4 -13 -1 -13 -31 1 -31 5 0 7 6 3 13 -6 9 -5 9 7 0 15 -12 39 -4 42 13 1 5 5 8 10 7 4 -2 7 2 7 7 0 6 -4 10 -10 10 -5 0 -10 4 -10 8 0 9 79 37 93 34 5 -2 7 8 6 20 -1 13 2 34 8 48 16 39 5 100 -17 100 -16 0 -18 -6 -14 -37z"/> <path d="M167 1093 c-9 -2 -15 -9 -12 -14 3 -5 -1 -6 -9 -3 -10 4 -18 -1 -22 -10 -8 -20 -5 -23 21 -28 13 -2 19 2 17 11 -3 12 -1 12 14 0 16 -13 17 -12 10 14 -4 18 -2 27 5 27 7 0 10 -3 6 -6 -3 -3 -2 -16 3 -28 9 -24 5 -26 -47 -27 -23 -1 -30 -13 -14 -23 10 -6 69 12 88 26 8 7 9 17 1 39 -10 28 -21 32 -61 22z"/> <path d="M1290 1085 c-8 -9 -22 -12 -43 -8 l-32 6 22 -25 c20 -21 21 -27 10 -43 -8 -10 -29 -23 -48 -29 -21 -8 -33 -17 -31 -26 2 -8 0 -12 -4 -7 -9 9 -44 -21 -44 -38 0 -24 27 -24 39 1 6 13 15 24 21 24 6 0 4 -14 -6 -32 -16 -31 -16 -32 12 -56 16 -13 24 -22 18 -18 -6 3 -21 -17 -35 -45 -13 -28 -31 -55 -42 -60 -14 -8 -16 -13 -6 -25 6 -8 20 -14 31 -14 17 0 19 5 16 29 -2 17 -1 28 2 26 4 -2 16 16 28 40 12 25 26 45 31 45 15 0 23 -18 11 -25 -21 -13 -11 -62 16 -80 29 -19 29 -19 39 13 6 21 4 23 -22 19 -21 -3 -30 -1 -30 9 0 7 4 11 8 8 4 -2 10 5 14 15 5 16 11 18 29 11 28 -10 38 -4 60 35 l16 30 -2 -44 c-2 -31 1 -45 11 -49 10 -3 12 1 8 17 -3 11 -2 19 3 16 15 -9 19 54 6 86 -19 46 -2 79 39 73 l30 -5 -22 19 c-13 12 -20 27 -17 38 4 15 -9 26 -55 52 -69 37 -65 36 -81 17z m84 -31 c25 -14 46 -28 46 -30 0 -3 -9 -23 -21 -45 -18 -36 -24 -40 -47 -35 l-27 6 28 -15 c34 -20 34 -29 -3 -87 -27 -44 -32 -47 -55 -38 -40 15 -89 41 -107 57 -16 15 -16 17 2 52 38 74 41 76 83 51 21 -13 40 -20 43 -18 2 3 -9 11 -26 18 -35 14 -38 38 -13 81 21 36 38 36 97 3z"/> <path d="M1300 994 c0 -15 35 -28 50 -19 16 10 1 25 -17 18 -10 -4 -14 -2 -10 4 3 5 0 10 -8 10 -8 0 -15 -6 -15 -13z"/> <path d="M1235 951 c-3 -6 -3 -16 0 -21 4 -6 1 -9 -7 -8 -19 4 -23 -48 -4 -55 22 -9 63 50 49 71 -12 20 -29 26 -38 13z"/> <path d="M1307 913 c-11 -10 -8 -43 4 -43 6 0 20 5 31 11 21 11 21 12 3 25 -21 16 -29 17 -38 7z"/> <path d="M1667 1093 c-9 -2 -15 -9 -12 -14 3 -5 -1 -6 -9 -3 -10 4 -18 -1 -22 -10 -8 -20 -5 -23 21 -28 13 -2 19 2 17 11 -3 12 -1 12 14 0 16 -13 17 -12 10 14 -4 18 -2 27 5 27 7 0 10 -3 6 -6 -3 -3 -2 -16 3 -28 9 -24 5 -26 -47 -27 -23 -1 -30 -13 -14 -23 10 -6 69 12 88 26 8 7 9 17 1 39 -10 28 -21 32 -61 22z"/> <path d="M2790 1085 c-8 -9 -22 -12 -43 -8 l-32 6 22 -25 c20 -21 21 -27 10 -43 -8 -10 -29 -23 -48 -29 -19 -7 -33 -17 -31 -24 1 -7 -4 -11 -10 -9 -7 1 -12 -6 -12 -15 1 -10 -4 -14 -12 -11 -8 3 -14 -1 -14 -10 0 -26 27 -27 39 -1 6 13 15 24 21 24 6 0 4 -14 -6 -32 -16 -31 -16 -32 12 -56 16 -13 24 -22 18 -18 -6 3 -21 -17 -35 -45 -13 -28 -31 -55 -42 -60 -14 -8 -16 -13 -6 -25 6 -8 20 -14 31 -14 17 0 19 5 16 29 -2 17 -1 28 2 26 4 -2 16 16 28 40 12 25 26 45 31 45 15 0 23 -18 11 -25 -21 -13 -11 -62 16 -80 29 -19 29 -19 39 13 6 21 4 23 -22 19 -21 -3 -30 -1 -30 9 0 7 4 11 8 8 4 -2 10 5 14 15 5 16 11 18 29 11 28 -10 38 -4 60 35 l16 30 -2 -44 c-2 -31 1 -45 11 -49 10 -3 12 1 8 17 -3 11 -2 19 3 16 15 -9 19 54 6 86 -19 46 -2 79 39 73 l30 -5 -22 19 c-13 12 -20 27 -17 38 4 15 -9 26 -55 52 -69 37 -65 36 -81 17z m84 -31 c25 -14 46 -28 46 -30 0 -3 -9 -23 -21 -45 -18 -36 -24 -40 -47 -35 l-27 6 28 -15 c34 -20 34 -29 -3 -87 -27 -44 -32 -47 -55 -38 -40 15 -89 41 -107 57 -16 15 -16 17 2 52 38 74 41 76 83 51 21 -13 40 -20 43 -18 2 3 -9 11 -26 18 -35 14 -38 38 -13 81 21 36 38 36 97 3z"/> <path d="M2800 1000 c0 -4 7 -13 15 -20 16 -14 50 -6 40 9 -3 6 -13 7 -22 4 -10 -4 -14 -2 -10 4 3 5 0 10 -8 10 -8 0 -15 -4 -15 -7z"/> <path d="M2735 951 c-3 -6 -3 -16 0 -21 4 -6 1 -9 -7 -8 -19 4 -23 -48 -4 -55 22 -9 63 50 49 71 -12 20 -29 26 -38 13z"/> <path d="M2807 913 c-11 -10 -8 -43 4 -43 6 0 20 5 31 11 21 11 21 12 3 25 -21 16 -29 17 -38 7z"/> <path d="M860 1011 c0 -7 -6 -11 -15 -7 -9 3 -15 0 -15 -10 0 -9 -5 -12 -12 -8 -8 5 -9 2 -5 -9 3 -10 2 -17 -3 -17 -5 0 -8 -9 -7 -20 1 -11 5 -20 9 -20 4 0 5 -7 2 -15 -4 -8 -1 -15 6 -15 6 0 8 -4 5 -10 -3 -5 0 -11 7 -11 7 -1 23 -3 36 -4 12 -1 22 2 22 7 0 5 5 6 10 3 6 -3 10 -1 10 4 0 6 7 11 15 11 9 0 12 6 9 15 -4 9 0 15 7 15 9 1 8 4 -4 11 -14 8 -16 14 -6 25 9 11 9 14 -1 14 -7 0 -10 7 -6 15 5 14 1 16 -36 19 -7 1 -16 6 -20 11 -5 6 -8 5 -8 -4z m30 -78 c19 -3 27 -10 23 -19 -7 -19 -33 -18 -33 1 0 8 -11 17 -25 21 -28 7 -31 14 -12 33 10 10 13 8 15 -9 2 -14 13 -23 32 -27z"/> <path d="M2360 1011 c0 -7 -6 -11 -15 -7 -9 3 -15 0 -15 -10 0 -9 -5 -12 -12 -8 -8 5 -9 2 -5 -9 3 -10 2 -17 -3 -17 -5 0 -8 -9 -7 -20 1 -11 5 -20 9 -20 4 0 5 -7 2 -15 -4 -8 -1 -15 6 -15 6 0 8 -4 5 -10 -3 -5 0 -11 7 -11 7 -1 23 -3 36 -4 12 -1 22 2 22 7 0 5 5 6 10 3 6 -3 10 -1 10 4 0 6 7 11 15 11 9 0 12 6 9 15 -4 9 0 15 7 15 9 1 8 4 -4 11 -14 8 -16 14 -6 25 9 11 9 14 -1 14 -7 0 -10 7 -6 15 5 14 1 16 -36 19 -7 1 -16 6 -20 11 -5 6 -8 5 -8 -4z m30 -78 c19 -3 27 -10 23 -19 -7 -19 -33 -18 -33 1 0 8 -11 17 -25 21 -28 7 -31 14 -12 33 10 10 13 8 15 -9 2 -14 13 -23 32 -27z"/> <path d="M420 980 c-9 -17 -7 -22 12 -29 13 -5 36 -22 51 -39 28 -29 28 -30 11 -57 -15 -24 -21 -26 -58 -19 -22 3 -48 12 -58 18 -15 9 -21 8 -28 -4 -5 -8 -10 -17 -10 -20 0 -3 32 -13 71 -23 43 -10 81 -27 98 -42 14 -14 35 -31 46 -39 19 -15 18 -15 -16 -16 -19 0 -40 5 -47 12 -9 9 -15 9 -23 1 -18 -18 -3 -43 25 -43 13 0 32 -3 40 -6 12 -5 15 -2 10 10 -3 9 -1 16 5 16 6 0 11 -4 11 -10 0 -5 17 -9 38 -9 20 1 57 -5 81 -12 42 -13 44 -13 67 14 35 41 32 87 -8 126 -17 17 -35 31 -40 31 -4 0 -8 9 -8 21 0 28 -18 59 -33 55 -6 -1 -9 -1 -4 1 13 8 7 25 -7 20 -10 -4 -13 -1 -9 8 7 19 -25 31 -40 16 -8 -8 -8 -14 2 -23 9 -8 11 -8 8 -2 -4 7 0 15 9 18 12 5 15 2 10 -9 -3 -9 2 -27 10 -41 22 -33 15 -37 -34 -20 -23 8 -51 13 -62 11 -12 -2 -18 0 -14 6 10 17 -27 50 -50 43 -12 -3 -16 -2 -9 3 8 6 6 14 -7 31 -22 27 -26 27 -40 2z m194 -125 c45 -19 54 -39 30 -66 -10 -12 -18 -34 -17 -54 1 -26 -2 -32 -14 -28 -11 4 -11 8 -3 13 8 5 3 10 -13 14 -14 3 -39 19 -57 36 -34 32 -35 62 -2 88 20 16 32 15 76 -3z m61 -4 c-3 -5 -1 -12 4 -16 6 -3 7 -13 4 -23 -6 -15 -5 -15 10 -3 15 12 21 11 42 -9 32 -30 32 -71 2 -106 -20 -22 -28 -25 -56 -19 -43 9 -49 30 -24 77 16 29 20 45 13 67 -4 16 -6 32 -2 35 9 9 14 7 7 -3z"/> <path d="M572 809 c2 -6 8 -11 13 -11 6 -1 15 -8 21 -16 7 -10 13 -11 17 -5 4 6 -4 18 -18 27 -28 19 -38 20 -33 5z"/> <path d="M699 762 c-13 -14 -17 -21 -7 -14 13 10 17 10 21 0 4 -10 6 -10 6 0 1 6 8 12 16 12 19 0 20 16 1 23 -8 3 -24 -6 -37 -21z"/> <path d="M1920 980 c-9 -17 -7 -22 12 -29 13 -5 36 -22 51 -39 28 -29 28 -30 11 -57 -15 -24 -21 -26 -58 -19 -22 3 -48 12 -58 18 -15 9 -21 8 -28 -4 -5 -8 -10 -17 -10 -20 0 -3 32 -13 71 -23 43 -10 81 -27 98 -42 14 -14 35 -31 46 -39 19 -15 18 -15 -15 -16 -20 0 -41 5 -48 12 -9 9 -15 9 -23 1 -18 -18 -3 -43 25 -43 13 0 32 -3 42 -7 13 -5 16 -3 11 10 -3 9 -2 17 3 17 6 0 10 -4 10 -10 0 -5 17 -9 38 -9 20 1 57 -5 81 -12 42 -13 44 -13 67 14 35 41 32 87 -8 126 -17 17 -35 31 -40 31 -4 0 -8 10 -8 23 0 27 -56 107 -75 107 -20 0 -29 -20 -15 -33 9 -9 11 -9 7 -1 -4 7 -1 14 7 17 8 3 17 -1 20 -9 4 -9 2 -12 -5 -8 -7 4 -10 1 -7 -7 3 -8 14 -19 25 -24 16 -8 18 -13 7 -22 -10 -10 -21 -9 -53 2 -22 8 -49 12 -60 10 -11 -2 -30 5 -42 16 -12 10 -18 19 -14 19 5 0 17 -7 27 -17 10 -9 18 -12 18 -6 0 19 -37 44 -56 37 -12 -3 -14 -3 -7 3 8 6 6 14 -7 31 -22 27 -26 27 -40 2z m194 -125 c45 -19 54 -39 30 -66 -10 -12 -18 -34 -17 -54 1 -26 -2 -32 -14 -28 -11 4 -11 8 -3 13 8 5 3 10 -13 14 -14 3 -39 19 -57 36 -34 32 -35 62 -2 88 20 16 32 15 76 -3z m61 -4 c-3 -5 -1 -12 4 -16 6 -3 7 -13 4 -23 -6 -15 -5 -15 11 -3 15 13 20 12 39 -9 16 -17 18 -21 6 -17 -11 3 -26 -4 -40 -21 -13 -14 -16 -20 -6 -13 14 11 17 11 17 0 0 -9 3 -10 8 -3 4 6 15 13 25 17 25 9 23 -33 -4 -67 -23 -29 -36 -32 -74 -14 -30 14 -32 32 -5 75 14 24 17 39 10 62 -4 16 -6 32 -2 35 9 9 14 7 7 -3z"/> <path d="M2072 809 c2 -6 8 -11 13 -11 6 -1 15 -8 21 -16 7 -10 13 -11 17 -5 4 6 -4 18 -18 27 -28 19 -38 20 -33 5z"/> <path d="M245 955 c-25 -15 -33 -24 -22 -25 9 0 17 4 17 9 0 5 9 7 20 4 11 -3 20 -9 20 -14 0 -17 -53 -43 -86 -43 -39 0 -45 -13 -10 -22 46 -11 129 46 111 76 -3 6 1 10 9 10 10 0 13 6 10 15 -8 21 -23 19 -69 -10z"/> <path d="M1745 955 c-25 -15 -33 -24 -22 -25 9 0 17 4 17 9 0 5 9 7 20 4 11 -3 20 -9 20 -14 0 -17 -53 -43 -86 -43 -39 0 -45 -13 -10 -22 46 -11 129 46 111 76 -3 6 1 10 9 10 10 0 13 6 10 15 -8 21 -23 19 -69 -10z"/> <path d="M902 734 c-23 -32 -42 -64 -42 -70 0 -24 97 -33 118 -12 21 21 14 84 -11 114 l-23 27 -42 -59z m78 -29 c0 -38 -16 -55 -51 -55 -48 0 -59 9 -47 36 12 26 23 30 33 14 11 -18 47 -12 43 8 -2 11 -11 16 -26 14 -26 -4 -28 5 -5 30 15 17 17 17 35 2 10 -10 18 -31 18 -49z"/> <path d="M2402 734 c-23 -32 -42 -64 -42 -70 0 -24 97 -33 118 -12 21 21 14 84 -11 114 l-23 27 -42 -59z m78 -29 c0 -38 -16 -55 -51 -55 -48 0 -59 9 -47 36 12 26 23 30 33 14 3 -5 15 -10 27 -10 14 0 18 5 14 16 -3 9 -6 17 -6 19 0 2 -9 1 -20 -2 -24 -6 -26 4 -3 29 15 17 17 17 35 2 10 -10 18 -31 18 -49z"/> <path d="M215 716 c-30 -45 20 -91 64 -59 26 18 27 59 2 73 -31 16 -49 12 -66 -14z m68 -7 c15 -24 1 -49 -26 -49 -35 0 -52 23 -37 50 13 24 47 24 63 -1z"/> <path d="M1715 716 c-30 -45 20 -91 64 -59 26 18 27 59 2 73 -31 16 -49 12 -66 -14z m68 -7 c15 -24 1 -49 -26 -49 -35 0 -52 23 -37 50 13 24 47 24 63 -1z"/> <path d="M0 715 c0 -8 5 -15 10 -15 14 0 12 -27 -3 -33 -9 -4 -9 -6 1 -6 7 -1 15 6 18 14 9 22 24 8 24 -21 0 -14 -11 -35 -25 -48 -29 -27 -31 -36 -10 -36 15 0 45 -49 45 -75 0 -8 -8 -15 -17 -16 -15 0 -15 -2 2 -9 17 -7 17 -9 3 -9 -22 -1 -22 -5 -2 -36 9 -14 13 -25 9 -25 -4 0 -2 -7 5 -15 7 -9 10 -18 7 -21 -10 -10 -39 5 -32 16 3 5 2 10 -3 10 -21 0 -20 -30 1 -45 28 -20 39 -19 71 6 32 25 34 61 4 91 -13 13 -31 48 -40 78 -22 70 -23 92 -2 62 8 -12 20 -19 26 -16 6 4 8 2 4 -4 -7 -11 31 -82 44 -82 5 0 11 4 15 10 6 10 -3 22 -65 89 -28 31 -36 47 -33 66 3 13 10 22 15 19 5 -4 8 4 6 17 -1 13 -10 24 -18 24 -8 1 -25 6 -37 13 -19 11 -23 10 -23 -3z m105 -285 c14 -16 16 -23 7 -32 -16 -16 -15 -31 1 -22 7 5 6 1 -2 -10 -14 -17 -15 -17 -28 0 -18 25 -16 34 7 34 11 0 20 4 20 9 0 4 -11 6 -25 3 -16 -3 -25 0 -25 8 0 8 8 10 21 7 12 -3 18 -2 13 3 -5 4 -18 10 -29 13 -19 4 -19 5 1 6 11 0 29 -8 39 -19z"/> <path d="M1450 723 c-26 -10 -60 -46 -60 -65 0 -10 -3 -17 -7 -17 -20 3 -23 -3 -13 -22 7 -11 17 -18 24 -16 7 3 25 -6 40 -19 25 -24 35 -41 17 -30 -12 8 -21 -29 -21 -86 0 -37 4 -48 15 -48 16 0 15 33 -2 94 -3 12 -1 16 6 12 6 -4 11 -1 12 6 0 7 11 -12 25 -42 15 -34 23 -64 19 -78 -9 -36 2 -59 36 -72 27 -11 34 -10 57 7 36 26 40 65 10 95 -13 12 -31 48 -40 78 -22 70 -23 92 -2 62 8 -12 20 -19 26 -16 6 4 8 2 4 -4 -7 -11 31 -82 44 -82 5 0 11 4 15 10 6 10 -3 22 -65 89 -28 31 -36 47 -33 66 3 13 10 22 15 19 5 -4 8 4 6 17 -1 13 -10 24 -18 24 -8 1 -25 6 -37 13 -23 13 -48 14 -73 5z m40 -18 c-7 -8 -10 -21 -7 -29 8 -21 -16 -26 -31 -7 -11 14 -11 14 -6 -1 4 -13 -1 -21 -17 -28 -23 -10 -23 -10 -2 -6 13 2 26 0 29 -5 9 -15 34 -10 41 8 9 22 40 53 47 46 3 -4 6 -17 6 -30 0 -34 -34 -63 -75 -63 -22 0 -43 8 -55 20 -24 24 -25 34 -5 53 10 11 11 17 3 19 -12 4 49 37 71 38 11 0 11 -3 1 -15z m48 -153 c14 -18 27 -61 21 -66 -2 -2 -14 -7 -27 -10 -17 -6 -24 -3 -31 16 -7 18 -4 26 13 36 21 13 20 13 -3 6 -21 -5 -23 -3 -18 15 4 18 3 20 -9 10 -11 -9 -14 -8 -14 6 0 14 6 16 28 11 15 -4 33 -15 40 -24z m10 -89 c-21 -5 -22 -12 -3 -37 8 -10 12 -22 10 -27 -3 -4 -1 -10 5 -14 16 -10 12 -22 -10 -28 -10 -3 -23 0 -28 7 -12 14 -12 47 0 40 5 -3 6 7 4 22 -6 33 0 44 22 43 15 -1 15 -2 0 -6z m57 -33 c14 -16 16 -23 7 -32 -16 -16 -15 -31 1 -22 7 5 6 1 -2 -10 -14 -17 -15 -17 -28 0 -18 25 -16 34 7 34 11 0 20 4 20 9 0 4 -11 6 -25 3 -16 -3 -25 0 -25 8 0 8 8 10 21 7 12 -3 18 -2 13 3 -5 4 -18 10 -29 13 -19 4 -19 5 1 6 11 0 29 -8 39 -19z"/> <path d="M2950 723 c-26 -10 -60 -46 -60 -65 0 -10 -3 -17 -7 -17 -20 3 -23 -3 -13 -22 7 -11 17 -18 24 -16 7 3 25 -6 40 -19 25 -24 35 -41 17 -30 -12 8 -21 -29 -21 -86 0 -37 4 -48 15 -48 16 0 15 33 -2 94 -3 12 -1 16 6 12 6 -4 11 -1 12 6 0 7 9 -5 19 -27 l19 -40 -2 52 c-2 40 -5 49 -14 41 -10 -8 -13 -6 -13 5 0 9 8 18 18 20 10 3 6 5 -11 6 -32 1 -67 17 -67 30 0 13 37 20 48 9 22 -22 42 0 39 41 -1 21 -6 37 -10 34 -5 -3 -7 -14 -4 -24 6 -23 -14 -31 -30 -10 -10 14 -11 14 -10 -3 1 -11 -7 -22 -20 -27 -27 -10 -30 2 -7 25 11 12 12 16 2 16 -17 0 20 24 57 38 21 7 24 10 10 10 -11 0 -27 -2 -35 -5z"/> <path d="M1040 631 c-21 -41 21 -81 58 -55 26 18 28 37 6 58 -21 22 -51 20 -64 -3z m58 -3 c18 -18 15 -36 -7 -48 -28 -14 -55 13 -41 41 12 22 30 25 48 7z"/> <path d="M2540 631 c-21 -41 21 -81 58 -55 26 18 28 37 6 58 -21 22 -51 20 -64 -3z m58 -3 c18 -18 15 -36 -7 -48 -28 -14 -55 13 -41 41 12 22 30 25 48 7z"/> <path d="M1228 589 c-26 -14 -23 -65 3 -79 43 -24 92 43 57 78 -15 15 -37 15 -60 1z"/> <path d="M2728 589 c-26 -14 -23 -65 3 -79 16 -9 26 -8 45 5 29 19 32 60 5 75 -24 12 -31 12 -53 -1z"/> <path d="M331 561 l-22 -20 21 -11 c12 -6 20 -15 18 -20 -4 -12 -96 -80 -108 -80 -15 0 -12 -26 5 -40 11 -10 18 -9 30 4 23 22 31 20 55 -14 l21 -30 -25 -12 c-29 -13 -33 -30 -11 -48 11 -10 18 -9 30 4 9 9 37 30 62 47 36 25 47 29 54 18 5 -8 9 -20 9 -26 0 -18 14 -16 40 7 25 22 21 36 -7 26 -21 -9 -24 -8 -21 2 2 4 7 6 12 4 5 -2 6 4 3 12 -3 8 3 22 14 32 10 9 19 25 19 35 0 10 9 21 20 24 33 10 13 25 -30 22 -39 -2 -50 -10 -30 -22 23 -14 4 -55 -26 -55 -12 0 -55 82 -50 95 6 18 43 20 48 3 2 -6 12 -12 22 -14 9 -1 15 3 13 9 -2 7 -8 12 -13 13 -5 0 -16 3 -24 7 -8 3 -22 8 -30 10 -10 4 -8 6 6 6 11 1 25 -4 31 -10 8 -8 17 -4 32 13 20 20 20 23 5 26 -9 2 -20 -2 -24 -9 -5 -7 -21 -13 -37 -14 -15 -1 -36 -5 -46 -10 -14 -6 -20 -2 -24 14 -7 26 -14 26 -42 2z m79 -36 c-16 -19 0 -63 35 -95 19 -18 27 -20 45 -10 16 8 21 18 17 36 -2 13 0 21 4 18 15 -9 10 -40 -8 -56 -10 -9 -43 -32 -74 -51 l-57 -36 -31 50 c-17 28 -35 47 -41 44 -6 -4 -7 2 -2 14 4 12 31 39 61 61 56 42 72 50 51 25z"/> <path d="M350 415 c0 -8 6 -15 14 -15 9 0 12 -7 9 -21 -4 -16 -2 -20 8 -17 8 3 14 10 14 16 0 5 4 14 9 19 5 5 6 2 1 -6 -5 -9 -3 -12 6 -9 8 3 16 13 17 22 3 15 1 16 -19 6 -18 -10 -23 -9 -31 4 -11 20 -28 21 -28 1z"/> <path d="M1831 561 l-22 -20 21 -11 c12 -6 20 -15 18 -20 -4 -12 -96 -80 -108 -80 -15 0 -12 -26 5 -40 11 -10 18 -9 30 4 23 22 31 20 55 -14 l21 -30 -25 -12 c-29 -13 -33 -30 -11 -48 11 -10 18 -9 30 4 9 9 37 30 62 47 36 25 47 29 54 18 5 -8 9 -20 9 -26 0 -18 14 -16 40 7 25 22 21 36 -7 26 -21 -9 -24 -8 -21 2 2 4 7 6 12 4 5 -2 6 4 3 12 -3 8 3 22 14 32 10 9 19 25 19 35 0 10 9 21 20 24 33 10 13 25 -30 22 -39 -2 -50 -10 -30 -22 23 -14 4 -55 -26 -55 -12 0 -55 82 -50 95 6 18 43 20 48 3 2 -6 12 -12 22 -14 9 -1 15 3 13 9 -2 7 -8 12 -13 13 -5 0 -16 3 -24 7 -8 3 -22 8 -30 10 -10 4 -8 6 6 6 11 1 25 -4 31 -10 8 -8 17 -4 32 13 20 20 20 23 5 26 -9 2 -20 -2 -24 -9 -5 -7 -21 -13 -37 -14 -15 -1 -36 -5 -46 -10 -14 -6 -20 -2 -24 14 -7 26 -14 26 -42 2z m79 -36 c-16 -19 0 -63 35 -95 19 -18 27 -20 45 -10 16 8 21 18 17 36 -2 13 0 21 4 18 15 -9 10 -40 -8 -56 -10 -9 -43 -32 -74 -51 l-57 -36 -31 50 c-17 28 -35 47 -41 44 -6 -4 -7 2 -2 14 4 12 31 39 61 61 56 42 72 50 51 25z"/> <path d="M1850 415 c0 -8 6 -15 14 -15 9 0 12 -7 9 -21 -4 -16 -2 -20 8 -17 8 3 14 10 14 16 0 5 4 14 9 19 5 5 6 2 1 -6 -5 -9 -3 -12 6 -9 8 3 16 13 17 22 3 15 1 16 -19 6 -18 -10 -23 -9 -31 4 -11 20 -28 21 -28 1z"/> <path d="M720 541 c0 -6 5 -13 10 -16 15 -9 12 -25 -4 -25 -8 0 -16 7 -20 15 -9 24 -26 17 -26 -9 0 -25 36 -60 51 -50 9 5 35 -36 31 -50 -4 -13 19 -36 35 -36 10 0 13 6 9 16 -4 12 -1 14 14 9 32 -10 25 28 -10 53 -19 14 -30 32 -30 47 0 13 -7 31 -16 39 -17 18 -44 21 -44 7z m51 -52 c4 -19 20 -43 36 -56 26 -21 27 -23 6 -23 -12 0 -24 -6 -26 -12 -3 -7 -6 -4 -7 7 -1 25 -33 65 -52 65 -16 0 -38 20 -38 34 0 6 5 5 12 -2 7 -7 21 -12 31 -12 15 0 18 5 14 21 -3 12 -1 19 6 16 6 -2 15 -19 18 -38z"/> <path d="M2220 541 c0 -6 5 -13 10 -16 15 -9 12 -25 -4 -25 -8 0 -16 7 -20 15 -9 24 -26 17 -26 -9 0 -25 36 -60 51 -50 9 5 35 -36 31 -50 -4 -13 19 -36 35 -36 10 0 13 6 9 16 -4 12 -1 14 14 9 32 -10 25 28 -10 53 -19 14 -30 32 -30 47 0 13 -7 31 -16 39 -17 18 -44 21 -44 7z m51 -52 c4 -19 20 -43 36 -56 26 -21 27 -23 6 -23 -12 0 -24 -6 -26 -12 -3 -7 -6 -4 -7 7 -1 25 -33 65 -52 65 -16 0 -38 20 -38 34 0 6 5 5 12 -2 7 -7 21 -12 31 -12 15 0 18 5 14 21 -3 12 -1 19 6 16 6 -2 15 -19 18 -38z"/> <path d="M954 503 c-14 -15 -28 -41 -31 -57 -5 -25 -8 -27 -18 -12 -7 9 -16 16 -20 16 -5 0 0 -9 10 -20 10 -11 23 -30 29 -43 7 -12 16 -22 21 -22 21 0 33 -16 39 -48 3 -18 15 -43 26 -55 11 -12 20 -26 20 -31 0 -18 18 -21 34 -5 15 14 14 17 -6 34 -17 13 -25 15 -30 7 -6 -9 -8 -9 -8 0 0 18 20 27 33 14 6 -6 21 -11 33 -11 13 0 42 -19 69 -45 38 -37 50 -44 61 -34 8 6 14 16 14 20 0 11 -50 33 -65 30 -5 -2 -7 1 -3 5 4 4 3 13 -4 21 -9 11 -8 18 4 29 14 14 19 11 50 -25 33 -39 36 -40 51 -23 10 10 14 22 10 25 -12 12 -22 7 -17 -8 4 -8 1 -15 -4 -15 -6 0 -12 10 -14 23 -2 12 -9 21 -16 19 -8 -1 -11 2 -8 6 3 5 -3 17 -14 27 -11 10 -20 26 -20 35 0 10 -9 29 -20 43 -21 26 -28 63 -10 52 6 -4 7 -11 4 -17 -5 -8 -1 -9 10 -5 9 4 15 3 12 -1 -2 -4 2 -16 10 -27 13 -18 15 -18 31 -2 9 9 15 18 12 19 -34 23 -92 48 -112 48 -16 0 -33 10 -45 27 -29 39 -84 42 -118 6z m87 2 c24 -13 28 -19 19 -35 -14 -25 -27 -33 -35 -19 -5 7 -16 3 -31 -12 -18 -17 -27 -20 -36 -11 -8 8 -7 17 6 36 16 26 51 35 58 16 2 -6 9 -6 17 0 12 7 9 10 -12 15 -34 9 -52 2 -72 -28 -12 -19 -13 -30 -5 -52 l11 -28 26 31 c14 17 30 29 34 26 5 -3 -5 -21 -23 -39 -22 -24 -35 -31 -43 -25 -7 6 -14 8 -16 6 -2 -2 -5 13 -7 34 -2 29 4 45 24 69 29 35 42 37 85 16z m59 -50 c9 -10 9 -15 1 -15 -12 0 -11 -22 3 -31 4 -4 -9 -25 -29 -48 -29 -32 -35 -45 -27 -53 9 -9 19 -5 43 18 17 16 35 38 41 49 6 11 -7 0 -30 -25 -22 -25 -43 -42 -47 -38 -10 10 55 86 75 88 11 2 11 3 -2 7 -18 5 -26 33 -9 33 11 0 51 -80 51 -101 0 -44 -66 -72 -112 -48 -14 8 -23 8 -31 0 -14 -14 -27 -14 -27 -1 0 6 7 10 16 10 8 0 13 4 9 10 -3 5 -11 8 -18 6 -7 -1 -8 -1 -4 2 4 2 3 9 -2 16 -8 9 -2 21 19 41 24 23 30 25 30 12 0 -18 15 -23 25 -8 6 11 -6 20 -35 26 -11 2 -19 -1 -17 -6 1 -6 -9 -18 -22 -27 -23 -16 -24 -16 -13 3 15 29 49 58 60 51 5 -3 17 3 27 14 10 11 13 20 8 20 -6 0 -14 -7 -17 -16 -4 -9 -9 -14 -13 -11 -7 7 15 37 27 37 4 0 13 -7 20 -15z"/> <path d="M2461 513 c-12 -10 -28 -36 -36 -58 -10 -31 -15 -36 -20 -22 -4 9 -12 17 -18 17 -5 0 -2 -9 8 -20 10 -11 23 -30 29 -43 7 -12 16 -22 21 -22 21 0 33 -16 39 -48 3 -18 15 -43 26 -55 11 -12 20 -26 20 -31 0 -18 18 -21 34 -5 15 14 14 17 -6 34 -17 13 -25 15 -30 7 -6 -9 -8 -9 -8 0 0 18 20 27 33 14 6 -6 21 -11 33 -11 13 0 42 -19 69 -45 38 -37 50 -44 61 -34 8 6 14 16 14 20 0 11 -50 33 -65 30 -5 -2 -7 1 -3 5 4 4 3 13 -4 21 -9 11 -8 18 4 29 14 14 19 11 50 -25 33 -39 36 -40 51 -23 10 10 14 22 10 25 -12 12 -22 7 -17 -8 4 -8 1 -15 -4 -15 -6 0 -12 10 -14 23 -2 12 -9 21 -16 19 -8 -1 -11 2 -8 6 3 5 -3 17 -14 27 -11 10 -20 26 -20 35 0 10 -9 29 -20 43 -21 26 -28 63 -10 52 6 -4 7 -11 4 -17 -5 -8 -1 -9 10 -5 9 4 15 3 12 -1 -2 -4 2 -16 10 -27 13 -18 15 -18 31 -2 9 9 15 18 12 19 -34 23 -92 48 -112 48 -16 0 -33 10 -45 27 -24 33 -80 41 -111 16z m80 -8 c24 -13 28 -19 19 -35 -14 -25 -27 -33 -35 -19 -5 7 -16 3 -31 -12 -18 -17 -27 -20 -36 -11 -8 8 -7 17 6 36 16 26 51 35 58 16 2 -6 9 -6 17 0 12 7 9 10 -12 15 -34 9 -52 2 -72 -28 -12 -19 -13 -30 -5 -51 l10 -27 26 30 c14 17 30 28 35 25 5 -3 -5 -21 -23 -39 -22 -24 -35 -31 -43 -25 -7 6 -14 8 -16 6 -2 -2 -5 13 -7 34 -2 29 4 45 24 69 29 35 42 37 85 16z m59 -50 c9 -10 9 -15 1 -15 -12 0 -11 -22 3 -31 4 -4 -9 -25 -29 -48 -29 -32 -35 -45 -27 -53 9 -9 22 -3 52 27 22 21 40 43 40 48 0 5 -18 -10 -39 -34 -21 -24 -42 -41 -46 -37 -10 10 55 86 75 88 11 2 11 3 -2 7 -18 5 -26 33 -9 33 11 0 51 -80 51 -101 0 -44 -66 -72 -112 -48 -14 8 -23 8 -31 0 -14 -14 -27 -14 -27 -1 0 6 7 10 16 10 8 0 13 4 9 10 -3 5 -11 8 -18 6 -7 -1 -8 -1 -4 2 4 2 3 9 -2 16 -8 9 -2 21 19 41 24 23 30 25 30 12 0 -18 15 -23 25 -8 6 11 -6 20 -35 26 -11 2 -19 -1 -17 -6 1 -6 -9 -18 -22 -27 -23 -16 -24 -16 -13 3 15 29 49 58 60 51 5 -3 17 3 27 14 10 11 13 20 8 20 -6 0 -14 -7 -17 -16 -4 -9 -9 -14 -13 -11 -7 7 15 37 27 37 4 0 13 -7 20 -15z"/> <path d="M637 312 c-22 -24 -21 -35 2 -56 26 -23 52 -17 70 16 13 22 13 29 2 42 -18 21 -54 20 -74 -2z"/> <path d="M2137 312 c-22 -24 -21 -35 2 -56 26 -23 52 -17 70 16 13 22 13 29 2 42 -18 21 -54 20 -74 -2z"/> <path d="M150 262 c-28 -10 -44 -35 -46 -73 -1 -29 3 -39 14 -39 8 0 13 -3 9 -6 -12 -12 20 -33 47 -30 30 4 69 43 62 63 -3 7 0 13 7 13 8 0 6 4 -3 10 -8 5 -11 10 -7 10 4 0 -4 11 -18 26 -14 14 -29 23 -34 19 -5 -3 -11 -1 -13 3 -1 5 -10 7 -18 4z m9 -61 c18 -18 18 -18 -5 -18 -17 0 -24 5 -24 18 0 11 2 19 5 19 3 0 13 -8 24 -19z"/> <path d="M794 258 c-4 -6 -8 -26 -9 -42 -1 -17 -5 -43 -10 -58 -6 -23 -4 -28 12 -28 10 0 27 11 37 25 10 14 25 25 32 25 11 0 34 29 34 44 0 7 -66 46 -78 46 -6 0 -14 -5 -18 -12z m46 -18 c0 -4 -7 -13 -16 -21 -14 -11 -14 -13 1 -22 14 -8 13 -12 -10 -34 -14 -14 -28 -23 -32 -20 -3 4 -2 7 3 7 6 0 10 10 11 23 0 12 4 30 8 40 4 11 3 17 -5 17 -10 0 -10 3 0 14 11 14 40 11 40 -4z m32 -14 c6 4 6 -2 -1 -14 -7 -13 -17 -19 -26 -16 -12 5 -12 10 -3 27 7 14 13 17 16 9 2 -6 8 -9 14 -6z"/> <path d="M1381 248 c-12 -31 4 -58 34 -58 31 0 50 32 35 60 -15 28 -58 26 -69 -2z m49 3 c-8 -6 -18 -7 -22 -5 -4 3 -8 -1 -8 -9 0 -20 28 -29 33 -11 3 9 4 8 3 -3 -2 -26 -33 -28 -41 -4 -8 27 1 41 28 41 17 0 19 -2 7 -9z"/> <path d="M1650 262 c-28 -10 -44 -35 -46 -73 -1 -29 3 -39 14 -39 8 0 13 -3 9 -6 -12 -12 20 -33 47 -30 30 4 69 43 62 63 -3 7 0 13 7 13 8 0 6 4 -3 10 -8 5 -11 10 -6 10 5 0 -1 8 -12 19 -12 10 -18 22 -14 26 4 4 -3 6 -15 3 -12 -3 -23 -3 -25 2 -2 4 -10 5 -18 2z m9 -61 c18 -18 18 -18 -5 -18 -17 0 -24 5 -24 18 0 11 2 19 5 19 3 0 13 -8 24 -19z"/> <path d="M2294 258 c-4 -6 -8 -26 -9 -42 -1 -17 -5 -43 -10 -58 -6 -23 -4 -28 12 -28 10 0 27 11 37 25 10 14 25 25 32 25 11 0 34 29 34 44 0 7 -66 46 -78 46 -6 0 -14 -5 -18 -12z m46 -18 c0 -4 -7 -13 -16 -21 -14 -11 -14 -13 1 -22 14 -8 13 -12 -10 -34 -14 -14 -28 -23 -32 -20 -3 4 -2 7 3 7 6 0 10 10 11 23 0 12 4 30 8 40 4 11 3 17 -5 17 -10 0 -10 3 0 14 11 14 40 11 40 -4z m32 -14 c6 4 6 -2 -1 -14 -7 -13 -17 -19 -26 -16 -12 5 -12 10 -3 27 7 14 13 17 16 9 2 -6 8 -9 14 -6z"/> <path d="M2881 248 c-12 -31 4 -58 34 -58 31 0 50 32 35 60 -15 28 -58 26 -69 -2z m49 3 c-8 -6 -18 -7 -22 -5 -4 3 -8 -1 -8 -9 0 -20 28 -29 33 -11 3 9 4 8 3 -3 -2 -26 -33 -28 -41 -4 -8 27 1 41 28 41 17 0 19 -2 7 -9z"/> <path d="M520 195 c-7 -8 -9 -15 -4 -16 5 0 -9 -6 -31 -12 -51 -16 -105 -84 -105 -133 0 -26 4 -34 18 -34 13 0 22 12 31 40 l12 40 34 -26 c19 -14 33 -31 31 -37 -1 -7 -1 -8 2 -4 2 4 20 5 40 2 l37 -6 -27 16 c-16 9 -28 17 -28 19 0 8 105 -27 111 -36 12 -18 19 40 9 68 -6 15 -13 25 -16 22 -2 -3 0 -17 5 -31 13 -33 4 -38 -45 -25 -21 5 -49 11 -61 12 -12 0 -21 4 -20 7 1 3 -13 18 -30 33 -39 33 -40 41 -12 57 28 14 79 4 122 -25 31 -21 38 -23 54 -11 15 11 16 16 5 27 -11 11 -15 10 -23 -4 -8 -15 -12 -15 -48 5 -26 14 -37 26 -34 38 6 23 -12 32 -27 14z m-45 -111 l30 -26 -30 15 c-22 11 -36 12 -49 5 -16 -9 -17 -8 -7 11 15 26 19 26 56 -5z"/> <path d="M2020 195 c-7 -8 -9 -15 -4 -16 5 0 -9 -6 -31 -12 -51 -16 -105 -84 -105 -133 0 -26 4 -34 18 -34 13 0 22 12 31 40 l12 41 32 -27 c18 -15 31 -34 30 -43 -2 -10 0 -11 3 -3 4 8 18 11 42 7 l37 -6 -27 16 c-16 9 -28 17 -28 19 0 6 59 -13 92 -29 24 -12 27 -11 32 10 6 23 -10 82 -20 73 -2 -3 0 -17 5 -31 13 -33 4 -38 -45 -25 -21 5 -49 11 -61 12 -12 0 -21 4 -20 7 1 3 -13 18 -30 33 -39 33 -40 41 -12 57 28 14 79 4 122 -25 31 -21 38 -23 54 -11 15 11 16 16 5 27 -11 11 -15 10 -23 -4 -8 -15 -12 -15 -48 5 -26 14 -37 26 -34 38 6 23 -12 32 -27 14z m-59 -102 c12 -14 12 -16 -1 -11 -8 3 -23 1 -33 -4 -16 -8 -17 -7 -7 11 13 25 23 26 41 4z"/> <path d="M1228 123 c0 -4 -2 -12 -3 -18 -2 -5 -3 -18 -4 -27 -1 -11 -9 -18 -21 -18 -16 0 -20 -6 -19 -32 2 -31 2 -31 6 -5 2 15 10 27 18 27 9 0 12 -8 9 -26 -3 -16 -1 -23 6 -19 5 3 10 15 10 26 0 12 7 19 19 19 13 0 20 9 24 33 2 17 4 33 3 33 -8 8 -46 13 -48 7z"/> <path d="M2728 123 c0 -4 -2 -12 -3 -18 -2 -5 -3 -18 -4 -27 -1 -11 -9 -18 -21 -18 -16 0 -20 -6 -19 -32 2 -31 2 -31 6 -5 2 15 10 27 18 27 9 0 12 -8 9 -26 -3 -16 -1 -23 6 -19 5 3 10 15 10 26 0 12 7 19 19 19 13 0 20 9 24 33 2 17 4 33 3 33 -8 8 -46 13 -48 7z"/> <path d="M523 104 c-3 -8 -1 -20 5 -26 8 -8 9 -4 5 12 -5 21 -4 21 17 10 18 -10 20 -14 9 -22 -12 -8 -12 -9 0 -6 25 7 23 24 -4 36 -21 10 -27 9 -32 -4z"/> <path d="M1295 112 c-12 -13 -3 -19 23 -16 15 2 19 1 7 -2 -20 -6 -45 -31 -45 -46 0 -4 11 -8 25 -8 14 0 34 -9 45 -20 16 -16 20 -17 20 -5 0 9 -7 18 -16 22 -12 4 -14 14 -10 38 6 29 4 33 -19 37 -13 3 -27 3 -30 0z"/> <path d="M2023 104 c-3 -8 -1 -20 5 -26 8 -8 9 -4 5 12 -5 21 -4 21 17 10 18 -10 20 -14 9 -22 -12 -8 -12 -9 0 -6 25 7 23 24 -4 36 -21 10 -27 9 -32 -4z"/> <path d="M2795 112 c-12 -13 -3 -19 23 -16 15 2 19 1 7 -2 -21 -6 -45 -31 -45 -47 0 -4 10 -7 23 -5 13 2 31 -6 45 -20 17 -18 22 -19 22 -7 0 9 -7 18 -16 22 -12 4 -14 14 -10 38 6 29 4 33 -19 37 -13 3 -27 3 -30 0z"/> <path d="M930 101 c0 -7 -6 -11 -15 -7 -8 3 -15 1 -15 -5 0 -6 -4 -7 -10 -4 -5 3 -10 -1 -10 -10 0 -10 -5 -13 -12 -9 -7 5 -9 2 -5 -9 3 -9 1 -18 -6 -21 -9 -5 -9 -7 1 -12 6 -3 10 -10 7 -15 -4 -5 16 -8 44 -6 27 1 47 5 44 10 -2 4 -12 7 -21 7 -12 0 -10 4 8 14 31 16 43 11 34 -16 -5 -17 -3 -20 11 -15 9 4 19 7 21 7 3 0 2 6 -3 13 -4 6 -8 17 -9 22 0 6 -2 16 -2 23 -1 7 -6 10 -12 7 -5 -3 -10 1 -10 10 0 9 -5 13 -11 9 -6 -3 -15 0 -20 7 -7 12 -9 12 -9 0z m20 -46 c-7 -9 -21 -13 -30 -10 -13 4 -17 1 -16 -11 0 -9 -5 -19 -11 -21 -7 -3 -13 1 -13 8 0 22 32 49 58 49 21 0 23 -2 12 -15z"/> <path d="M2430 101 c0 -7 -6 -11 -15 -7 -8 3 -15 1 -15 -5 0 -6 -4 -7 -10 -4 -5 3 -10 -1 -10 -10 0 -10 -5 -13 -12 -9 -7 5 -9 2 -5 -9 3 -9 1 -18 -6 -21 -9 -5 -9 -7 1 -12 6 -3 10 -10 7 -15 -4 -5 16 -8 44 -6 45 2 63 16 23 18 -14 0 -13 2 3 9 35 15 47 12 40 -12 -6 -17 -4 -20 10 -15 9 4 19 7 21 7 3 0 2 6 -3 13 -4 6 -8 17 -9 22 0 6 -2 16 -2 23 -1 7 -6 10 -12 7 -5 -3 -10 1 -10 10 0 9 -5 13 -11 9 -6 -3 -15 0 -20 7 -7 12 -9 12 -9 0z m20 -46 c-7 -8 -21 -13 -30 -10 -13 4 -17 1 -16 -11 0 -9 -5 -19 -11 -21 -15 -6 -17 23 -3 32 6 4 8 10 6 14 -3 4 11 8 31 9 32 3 35 1 23 -13z"/> <path d="M19 39 l-24 -21 25 16 c34 22 47 20 77 -11 21 -23 24 -24 14 -6 -11 22 -40 43 -59 43 -5 0 -20 -9 -33 -21z"/> <path d="M1525 48 c-21 -12 -35 -28 -35 -40 0 -4 11 4 25 17 31 32 50 31 82 -2 27 -28 23 -13 -5 20 -17 20 -38 21 -67 5z"/> </g> </svg> 