 <svg  version="1.0" xmlns="http://www.w3.org/2000/svg"  width="450.000000pt" height="450.000000pt" viewBox="0 0 450.000000 450.000000"  preserveAspectRatio="xMidYMid meet">  <g transform="translate(0.000000,450.000000) scale(0.050000,-0.050000)" fill="#babdb6" stroke="none"> <path d="M3540 8300 l0 -560 -1081 -5 -1081 -5 -311 -670 c-171 -368 -318 -677 -326 -686 -9 -10 -90 20 -181 66 -90 45 -168 79 -172 74 -5 -4 235 -124 532 -266 l540 -258 0 -1790 0 -1790 410 -410 409 -409 6 -470 6 -471 4 480 5 480 -410 410 -410 410 0 1786 0 1786 -355 171 c-195 93 -357 172 -360 175 -3 3 138 311 313 684 l318 678 1082 5 1082 5 0 570 c0 314 -4 570 -10 570 -5 0 -10 -252 -10 -560z"/> <path d="M6500 8288 l0 -579 410 -409 410 -410 0 -1791 0 -1792 355 -168 c195 -92 365 -178 377 -193 12 -14 27 -20 33 -14 6 6 76 -22 155 -62 79 -40 148 -69 152 -64 5 4 -228 121 -517 259 l-525 251 0 1775 0 1774 660 -3 c419 -2 671 5 690 18 21 14 -189 20 -669 19 l-699 -1 -398 398 -398 398 -11 578 c-5 318 -13 582 -17 586 -5 5 -8 -252 -8 -570z"/> <path d="M6734 8647 c-28 -27 -13 -70 21 -63 19 4 35 19 35 35 0 31 -35 49 -56 28z"/> <path d="M3274 8567 c-28 -27 -13 -70 21 -63 19 4 35 19 35 35 0 31 -35 49 -56 28z"/> <path d="M3806 8205 c63 -4 162 -4 220 0 57 4 5 8 -116 8 -121 -1 -168 -4 -104 -8z"/> <path d="M4180 8200 c17 -11 158 -20 315 -20 l284 0 6 -675 6 -675 4 695 5 695 -325 0 c-217 -1 -315 -7 -295 -20z"/> <path d="M4870 8200 c8 -13 294 -20 791 -20 506 0 779 7 779 20 0 13 -277 20 -791 20 -523 0 -787 -7 -779 -20z"/> <path d="M6734 8047 c-28 -27 -13 -70 21 -63 19 4 35 19 35 35 0 31 -35 49 -56 28z"/> <path d="M3274 7967 c-28 -27 -13 -70 21 -63 19 4 35 19 35 35 0 31 -35 49 -56 28z"/> <path d="M5003 7907 c9 -44 67 -50 67 -7 0 16 -17 33 -37 37 -27 5 -35 -3 -30 -30z"/> <path d="M5240 7874 c0 -4 42 -37 92 -75 202 -150 341 -420 368 -709 l14 -160 3 141 c4 215 -70 424 -212 599 -77 94 -265 239 -265 204z"/> <path d="M5140 7630 c0 -7 26 -35 58 -61 90 -76 177 -227 213 -370 41 -160 59 -182 40 -49 -17 120 -69 244 -143 340 -52 70 -168 165 -168 140z"/> <path d="M4036 7568 c-21 -44 -17 -65 23 -140 57 -108 80 -112 68 -13 l-9 75 50 -80 c53 -84 71 -76 22 10 -53 93 -24 107 74 37 l61 -43 -26 48 c-89 170 -212 220 -263 106z"/> <path d="M910 7420 c-17 -27 6 -60 41 -60 16 0 29 18 29 40 0 41 -48 55 -70 20z"/> <path d="M3590 7373 c-38 -58 -21 -112 68 -213 67 -78 90 -41 30 51 -42 64 -8 63 52 -1 26 -27 56 -50 67 -50 11 0 -5 26 -35 58 -54 57 -56 102 -5 102 13 0 41 -20 62 -44 29 -34 40 -38 47 -17 34 101 -227 204 -286 114z"/> <path d="M4270 7319 c-33 -21 -69 -42 -80 -46 -12 -4 -9 -20 7 -39 24 -29 34 -28 105 20 62 41 74 57 56 79 -13 15 -24 26 -25 26 -2 -1 -30 -19 -63 -40z"/> <path d="M5003 7307 c9 -44 67 -50 67 -7 0 16 -17 33 -37 37 -27 5 -35 -3 -30 -30z"/> <path d="M4433 7247 c-23 -24 -14 -43 57 -118 83 -88 89 -75 19 44 -54 93 -55 94 -76 74z"/> <path d="M4320 7170 c11 -33 44 -87 72 -120 l52 -60 -55 100 c-68 125 -97 158 -69 80z"/> <path d="M3851 7121 c-99 -101 -54 -138 51 -42 37 33 75 61 85 61 10 0 7 14 -7 30 -35 42 -43 39 -129 -49z"/> <path d="M4070 7040 c17 -33 44 -60 61 -60 42 0 36 26 -17 77 -65 60 -81 54 -44 -17z"/> <path d="M3364 7009 c-60 -43 -55 -95 18 -178 70 -80 115 -96 68 -24 -42 65 -16 79 52 28 46 -33 52 -48 34 -70 -18 -22 -17 -32 5 -46 42 -27 59 -23 59 12 0 17 23 54 52 82 38 39 45 58 28 74 -17 17 -33 9 -64 -33 l-41 -57 -57 55 c-59 56 -59 97 -1 79 85 -26 84 25 -1 66 -106 51 -96 51 -152 12z"/> <path d="M3940 7031 c0 -30 84 -132 126 -153 29 -15 17 7 -36 64 -44 48 -82 91 -85 96 -3 5 -5 2 -5 -7z"/> <path d="M4470 6989 c-74 -44 -107 -92 -60 -87 60 7 168 81 157 108 -6 17 -13 29 -14 28 -2 -1 -39 -23 -83 -49z"/> <path d="M4602 6942 c-21 -14 -9 -37 56 -105 l84 -87 -51 105 c-29 58 -54 105 -56 105 -3 0 -17 -9 -33 -18z"/> <path d="M3880 6923 c0 -26 79 -91 93 -76 8 7 -3 31 -23 53 -38 42 -70 52 -70 23z"/> <path d="M682 6873 c-17 -21 -16 -33 5 -51 21 -17 33 -16 51 5 17 21 16 33 -5 51 -21 17 -33 16 -51 -5z"/> <path d="M4116 6833 c-53 -47 -69 -72 -53 -88 33 -33 204 93 174 129 -30 36 -37 34 -121 -41z"/> <path d="M4532 6800 c30 -55 58 -96 63 -92 9 10 -93 192 -108 192 -5 0 15 -45 45 -100z"/> <path d="M4881 6861 c-33 -61 -27 -188 8 -174 19 7 47 -20 82 -80 29 -49 57 -86 63 -80 5 5 -13 49 -42 97 l-51 87 44 27 c33 21 45 22 51 3 16 -46 97 -127 121 -119 16 6 4 40 -36 103 -33 52 -54 95 -46 96 8 0 -6 18 -32 40 -60 50 -136 50 -162 0z"/> <path d="M4198 6730 c11 -22 43 -67 72 -100 29 -33 43 -42 32 -20 -11 22 -43 67 -72 100 -29 33 -43 42 -32 20z"/> <path d="M3672 6698 c21 -23 56 -51 78 -62 28 -15 23 -3 -19 41 -64 69 -120 89 -59 21z"/> <path d="M4660 6670 c-27 -16 -71 -29 -96 -29 -41 -1 -49 -52 -16 -95 25 -31 204 71 190 109 -19 52 -14 51 -78 15z"/> <path d="M3844 6605 c-47 -51 -60 -77 -45 -92 27 -27 173 112 152 145 -19 32 -33 25 -107 -53z"/> <path d="M4360 6557 c-49 -31 -99 -60 -110 -64 -11 -5 -7 -22 10 -40 28 -30 39 -28 129 17 123 63 120 60 88 106 -26 37 -30 36 -117 -19z"/> <path d="M7591 6561 c-18 -28 4 -61 42 -61 17 0 27 14 23 33 -7 41 -47 57 -65 28z"/> <path d="M4820 6552 c0 -4 14 -39 30 -79 45 -107 48 -103 -208 -269 -307 -199 -549 -402 -519 -437 46 -56 94 -48 220 39 454 313 526 343 627 265 81 -61 310 -95 310 -46 0 19 -27 36 -75 45 -125 23 -211 66 -198 99 6 17 -29 111 -78 210 -76 155 -109 207 -109 173z"/> <path d="M5159 6529 c-14 -17 -57 -44 -96 -61 -93 -39 -60 -78 38 -45 89 29 139 73 126 109 -15 36 -36 35 -68 -3z"/> <path d="M3916 6490 c25 -49 101 -120 114 -107 5 5 -23 41 -63 78 -44 43 -64 54 -51 29z"/> <path d="M3404 6440 c-80 -49 -99 -93 -58 -135 43 -43 209 -67 222 -32 6 14 22 23 36 20 14 -4 20 -3 13 1 -7 4 -6 38 3 75 24 108 -92 146 -216 71z m187 -42 c21 -34 -41 -84 -87 -69 -57 18 -35 91 27 91 26 0 53 -10 60 -22z"/> <path d="M4107 6369 c-65 -68 -78 -92 -58 -108 43 -35 210 129 171 167 -26 25 -41 17 -113 -59z"/> <path d="M5250 6356 c-14 -76 24 -222 54 -204 26 16 17 173 -13 228 l-27 49 -14 -73z"/> <path d="M3683 6296 c-44 -76 -47 -113 -6 -88 41 26 100 149 76 158 -14 5 -45 -26 -70 -70z"/> <path d="M4273 6276 c-7 -25 -12 -77 -10 -116 1 -57 5 -49 20 38 18 111 12 160 -10 78z"/> <path d="M3740 6224 c0 -20 95 -91 147 -111 32 -11 33 -18 12 -45 -22 -26 -22 -34 2 -48 23 -15 119 123 119 171 0 29 -37 1 -57 -43 l-24 -51 -99 71 c-55 40 -100 65 -100 56z"/> <path d="M2901 6023 c-8 -221 427 -633 709 -673 64 -9 52 -1 -59 39 -265 95 -456 266 -581 521 -37 77 -69 128 -69 113z"/> <path d="M3180 6024 c0 -116 430 -481 493 -418 5 5 -39 32 -99 60 -133 60 -259 172 -327 287 -50 85 -67 103 -67 71z"/> <path d="M4834 5915 c-102 -137 -146 -292 -121 -435 14 -85 16 -81 28 80 12 166 42 251 131 375 18 25 28 45 21 45 -6 0 -33 -29 -59 -65z"/> <path d="M5261 5879 c-50 -118 -57 -192 -23 -255 42 -78 56 -48 69 150 15 230 12 238 -46 105z"/> <path d="M5855 5965 c267 -3 703 -3 970 0 267 3 49 6 -485 6 -533 0 -752 -3 -485 -6z"/> <path d="M7591 5961 c-18 -28 4 -61 42 -61 17 0 27 14 23 33 -7 41 -47 57 -65 28z"/> <path d="M3960 5943 c0 -9 18 -33 40 -53 40 -36 51 -21 28 38 -13 33 -68 45 -68 15z"/> <path d="M1140 5800 c0 -30 10 -41 35 -36 19 4 35 20 35 36 0 16 -16 32 -35 36 -25 5 -35 -6 -35 -36z"/> <path d="M4222 5606 c125 -162 386 -438 444 -469 81 -43 57 32 -44 137 -23 24 -42 63 -42 85 0 23 -11 39 -25 36 -14 -3 -23 6 -20 20 3 14 -3 23 -12 20 -9 -3 -44 24 -78 60 -69 73 -272 174 -223 111z"/> <path d="M5300 5533 c0 -16 52 -69 115 -117 65 -49 131 -119 152 -163 40 -81 65 -85 46 -7 -15 58 -313 332 -313 287z"/> <path d="M5192 5386 c-47 -24 -77 -25 -194 -4 -172 30 -179 23 -99 -101 35 -55 58 -109 51 -121 -7 -12 -3 -34 10 -49 18 -22 14 -33 -17 -50 -48 -25 -106 44 -163 193 -19 51 -39 83 -45 74 -16 -26 36 -168 84 -227 23 -28 52 -76 63 -106 28 -70 9 -76 245 72 351 220 385 221 140 5 -142 -125 -158 -134 -222 -122 l-69 13 36 -62 c64 -107 209 -59 251 83 20 66 45 95 121 142 76 47 91 66 74 87 -17 20 -17 34 0 54 50 61 -5 112 -69 64 -35 -25 -44 -23 -90 28 -49 53 -55 54 -107 27z"/> <path d="M7590 5340 c-17 -27 6 -60 41 -60 16 0 29 18 29 40 0 41 -48 55 -70 20z"/> <path d="M1140 5200 c0 -30 10 -41 35 -36 19 4 35 20 35 36 0 16 -16 32 -35 36 -25 5 -35 -6 -35 -36z"/> <path d="M3067 5125 c-239 -537 -467 -1071 -461 -1078 5 -4 124 257 266 582 l258 589 670 6 670 7 -676 4 -676 5 -51 -115z"/> <path d="M5553 5142 c207 -323 378 -519 465 -532 53 -8 106 -33 137 -63 27 -27 72 -58 99 -68 l49 -19 -40 55 c-22 30 -177 190 -345 355 -350 345 -302 256 68 -127 128 -131 126 -136 -19 -93 -12 4 -113 129 -224 278 -185 248 -282 357 -190 214z"/> <path d="M4780 4480 l0 -480 -1623 0 c-893 0 -1628 -4 -1633 -10 -6 -5 729 -10 1633 -10 l1643 0 0 490 c0 270 -4 490 -10 490 -5 0 -10 -216 -10 -480z"/> <path d="M4469 4898 c-7 -12 -4 -31 8 -43 25 -25 90 18 72 47 -16 25 -64 22 -80 -4z"/> <path d="M5000 4793 c0 -7 78 -182 173 -388 95 -206 190 -415 212 -465 37 -86 40 -88 58 -42 12 33 10 60 -9 90 -15 23 -44 68 -64 99 l-37 56 99 -14 c74 -11 112 -30 155 -77 l57 -62 -41 70 c-32 53 -60 74 -117 85 -174 34 -166 28 -166 125 0 53 -9 90 -22 90 -13 0 -18 18 -12 40 6 22 2 40 -9 40 -11 0 -14 9 -7 20 7 11 3 20 -9 20 -20 0 -59 75 -68 130 -4 24 -193 202 -193 183z"/> <path d="M7590 4740 c-17 -27 6 -60 41 -60 16 0 29 18 29 40 0 41 -48 55 -70 20z"/> <path d="M5494 4692 c-11 -27 104 -216 147 -243 77 -47 85 51 12 160 -73 110 -136 143 -159 83z"/> <path d="M1143 4587 c4 -20 21 -37 37 -37 43 0 37 58 -7 67 -27 5 -35 -3 -30 -30z"/> <path d="M6245 4329 c-302 -81 -705 -419 -705 -590 0 -62 -12 -67 -238 -90 -190 -20 -274 -117 -182 -209 56 -56 141 -50 277 18 l115 59 -8 -116 c-21 -286 176 -606 474 -768 l100 -55 94 48 94 48 -96 24 c-505 127 -731 719 -446 1168 148 233 471 384 722 337 114 -22 116 -12 18 83 -85 83 -76 81 -219 43z m-662 -716 c17 -94 -398 -212 -451 -128 -40 64 40 114 216 134 86 9 166 27 178 39 25 25 48 8 57 -45z"/> <path d="M4469 4298 c-7 -12 -4 -31 8 -43 25 -25 90 18 72 47 -16 25 -64 22 -80 -4z"/> <path d="M6400 4138 c0 -9 38 -27 85 -39 168 -45 435 -228 435 -297 0 -70 -82 -53 -175 37 -264 255 -725 185 -869 -131 -17 -37 -35 -45 -92 -42 -156 9 -135 -407 32 -625 29 -39 51 -78 48 -87 -3 -10 4 -11 15 -5 11 7 -9 53 -47 107 -160 226 -175 690 -19 589 18 -11 18 -39 2 -110 -63 -274 140 -571 437 -637 92 -21 107 -31 112 -76 20 -172 480 61 590 299 20 43 42 78 50 78 92 4 -61 -241 -230 -368 -91 -69 -83 -92 13 -33 308 191 431 630 272 970 -80 171 -328 392 -439 392 -16 0 20 -28 80 -63 193 -109 344 -332 374 -552 15 -112 -30 -331 -66 -317 -16 6 -43 -25 -71 -80 -111 -222 -515 -458 -542 -317 -8 40 3 49 81 68 332 84 521 408 416 714 -33 97 -33 97 16 140 l49 42 -46 68 c-74 108 -204 190 -404 256 -59 20 -107 28 -107 19z m193 -220 c315 -151 398 -560 168 -822 -322 -366 -922 -143 -921 343 2 399 397 650 753 479z"/> <path d="M6255 3625 c-120 -74 -139 -235 -40 -334 124 -125 330 -60 358 112 29 183 -164 317 -318 222z m215 -85 c84 -93 20 -240 -103 -240 -84 0 -147 60 -147 140 0 124 168 191 250 100z"/> <path d="M7601 4141 c-31 -20 -11 -61 30 -61 31 0 40 51 13 68 -9 5 -28 2 -43 -7z"/> <path d="M1143 3987 c4 -20 21 -37 37 -37 43 0 37 58 -7 67 -27 5 -35 -3 -30 -30z"/> <path d="M3477 3480 l-13 -390 93 -86 c51 -48 120 -105 153 -128 33 -23 -1 14 -75 82 l-134 124 -6 394 -5 394 -13 -390z"/> <path d="M3644 3765 c4 -19 20 -35 36 -35 16 0 32 16 36 35 5 25 -6 35 -36 35 -30 0 -41 -10 -36 -35z"/> <path d="M6960 3691 c0 -4 10 -34 21 -64 12 -31 29 -106 38 -167 l16 -110 3 112 c2 116 -28 238 -60 238 -10 0 -18 -4 -18 -9z"/> <path d="M7589 3539 c-18 -30 33 -85 57 -61 22 22 5 82 -24 82 -11 0 -25 -9 -33 -21z"/> <path d="M1154 3407 c-28 -27 -13 -70 21 -63 19 4 35 19 35 35 0 31 -35 49 -56 28z"/> <path d="M3654 3307 c-29 -28 -13 -67 27 -67 28 0 40 11 35 33 -7 37 -41 56 -62 34z"/> <path d="M4836 3104 c-394 -239 -415 -255 -319 -237 75 14 335 165 418 243 64 59 72 54 50 -33 -14 -57 -50 -89 -236 -212 -120 -79 -211 -145 -201 -145 32 0 452 269 452 290 1 92 45 170 96 170 58 0 124 59 124 110 0 46 -7 43 -384 -186z"/> <path d="M8060 2313 l0 -586 -1030 -449 -1029 -448 3 -150 4 -150 7 141 7 142 1029 447 1029 447 0 596 c0 329 -4 597 -10 597 -5 0 -10 -264 -10 -587z"/> <path d="M1154 2807 c-28 -27 -13 -70 21 -63 19 4 35 19 35 35 0 31 -35 49 -56 28z"/> <path d="M3660 2799 c-344 -72 -657 -386 -731 -733 -32 -154 -38 -304 -11 -275 20 21 82 262 82 318 0 66 87 220 172 303 46 45 95 103 108 129 26 47 26 47 57 7 31 -40 32 -40 162 27 219 112 472 122 695 26 l102 -44 -31 -55 -32 -55 -120 49 c-388 157 -933 -155 -933 -534 0 -28 -20 -39 -82 -48 -108 -14 -107 -13 -81 -172 29 -177 75 -282 190 -435 51 -67 93 -134 93 -149 0 -18 6 -20 21 -5 15 15 -7 59 -75 149 -180 237 -269 557 -164 585 86 23 92 16 103 -112 36 -453 543 -745 957 -552 460 214 555 804 183 1140 l-80 72 38 61 39 61 -46 32 c-200 141 -595 137 -831 -8 -62 -39 -65 -39 -84 -3 -51 95 365 209 648 176 172 -19 227 -9 121 23 -108 34 -360 45 -470 22z m434 -322 c452 -169 577 -788 223 -1107 -414 -374 -1073 -118 -1112 431 -36 488 435 846 889 676z"/> <path d="M3750 2101 c-84 -35 -136 -116 -146 -228 -24 -293 379 -392 499 -122 97 220 -128 443 -353 350z m241 -110 c116 -116 34 -311 -131 -311 -145 0 -225 137 -157 266 57 107 203 130 288 45z"/> <path d="M4331 2752 l-58 -24 90 -53 c261 -153 455 -487 457 -785 l0 -99 64 64 64 64 -24 116 c-70 338 -436 781 -593 717z"/> <path d="M5160 2710 c-95 -71 -118 -137 -50 -145 56 -7 234 128 226 171 -11 56 -81 46 -176 -26z"/> <path d="M6583 2610 c-76 -146 -214 -282 -352 -348 -124 -58 -126 -55 -32 51 86 99 216 339 194 361 -16 16 -13 21 -90 -137 -35 -74 -105 -179 -155 -235 l-92 -102 -145 0 c-80 0 -184 14 -231 30 -100 35 -100 35 -100 12 0 -29 136 -68 280 -81 l130 -12 -116 -44 c-136 -53 -339 -60 -444 -16 -82 34 -113 8 -34 -28 152 -71 431 -43 593 61 51 32 103 58 117 58 173 0 574 384 574 549 0 41 -40 -8 -97 -119z"/> <path d="M5850 2617 c-322 -180 -527 -342 -550 -437 -19 -80 -30 -96 -62 -90 -24 5 -65 -18 -108 -62 -80 -80 -92 -121 -25 -85 147 78 188 119 221 222 33 103 39 108 304 283 232 153 290 194 265 191 -3 0 -23 -10 -45 -22z"/> <path d="M7879 2608 c-22 -26 -22 -34 1 -48 34 -21 60 -8 60 30 0 43 -33 53 -61 18z"/> <path d="M5773 2429 c-177 -135 -96 -128 107 10 83 56 86 61 38 61 -29 0 -93 -31 -145 -71z"/> <path d="M3175 2355 c-56 -86 -110 -205 -125 -275 -19 -93 17 -57 50 50 14 44 51 119 83 166 31 47 57 90 57 95 0 25 -39 4 -65 -36z"/> <path d="M7870 2120 c-17 -27 6 -60 41 -60 16 0 29 18 29 40 0 41 -48 55 -70 20z"/> <path d="M4690 2015 c-4 -14 -11 -102 -14 -195 -7 -204 -79 -372 -229 -539 l-92 -103 -38 41 c-21 23 -45 41 -52 41 -8 0 11 -25 42 -55 l56 -55 99 107 c177 191 273 446 247 656 -11 90 -8 104 24 113 34 9 34 10 1 12 -19 1 -39 -9 -44 -23z"/> <path d="M5012 1726 c216 -196 958 -839 985 -853 18 -9 9 4 -21 30 -30 26 -257 227 -506 447 -249 220 -467 407 -486 416 -19 9 -6 -9 28 -40z"/> <path d="M2788 1669 c-160 -169 -130 -487 76 -798 l78 -119 -27 -111 -27 -111 -254 -6 -254 -5 0 -79 0 -80 -755 -5 c-415 -3 877 -7 2872 -8 1994 -2 3623 -1 3620 3 -4 3 -653 9 -1442 13 l-1435 7 0 75 0 75 -209 0 c-181 0 -210 5 -218 35 -6 19 -34 139 -63 265 -29 127 -57 242 -61 257 -7 19 -33 8 -90 -38 -98 -77 -109 -71 -69 40 45 128 38 134 -58 45 -327 -302 -898 -300 -1229 4 l-89 82 15 -98 c8 -53 19 -111 26 -127 18 -48 -63 3 -103 65 -41 62 -62 53 -80 -33 -52 -260 -66 -261 -179 -21 -149 317 -149 509 -2 656 58 58 77 88 56 88 -18 0 -62 -32 -99 -71z m549 -778 c291 -147 701 -149 1031 -3 128 57 150 52 34 -7 -326 -166 -869 -157 -1132 19 -82 54 -49 50 67 -9z m1149 -87 c7 19 18 15 39 -13 17 -22 26 -52 19 -68 -7 -19 -2 -24 13 -15 14 9 23 2 23 -18 0 -18 -9 -27 -20 -20 -11 7 -20 3 -20 -9 0 -11 10 -21 22 -21 17 0 17 -8 0 -28 -29 -34 -103 -50 -153 -31 -22 8 -54 6 -72 -3 -22 -11 -41 -7 -57 12 -14 17 -40 29 -57 29 -21 -1 -16 -9 15 -21 26 -10 43 -24 37 -30 -7 -6 -33 0 -58 15 -26 14 -57 23 -69 21 -12 -2 -31 15 -41 40 -14 30 -25 36 -35 20 -8 -13 -5 -24 7 -24 11 0 21 -10 21 -22 0 -16 -9 -15 -30 2 -29 24 -39 14 -31 -30 2 -11 -7 -9 -21 4 -16 16 -36 18 -59 5 -25 -13 -42 -9 -60 12 -18 22 -31 24 -52 7 -21 -18 -27 -16 -27 5 -1 21 -5 21 -20 -3 -18 -27 -22 -27 -40 0 -16 26 -19 26 -20 1 0 -22 -5 -24 -24 -5 -16 16 -31 17 -48 2 -18 -15 -28 -9 -38 21 -7 23 -22 41 -34 41 -13 0 -11 -12 4 -30 14 -17 19 -37 12 -45 -8 -8 -23 -1 -33 16 -10 16 -19 19 -19 6 0 -14 -17 -19 -43 -12 -33 9 -39 5 -27 -17 9 -15 10 -22 2 -15 -8 7 -43 5 -76 -4 -39 -11 -74 -10 -94 3 -26 16 -24 18 11 8 24 -6 48 -4 54 6 6 9 -19 17 -57 17 -38 0 -64 -7 -58 -16 6 -9 -4 -17 -21 -17 -17 0 -31 11 -31 24 0 19 -5 19 -24 0 -59 -59 -77 83 -23 179 l27 47 -9 -55 c-5 -33 0 -51 11 -44 10 6 15 18 10 26 -21 33 27 75 48 43 13 -20 19 -22 20 -5 0 14 10 25 21 25 12 0 16 -9 9 -20 -7 -11 -4 -20 7 -20 11 0 24 11 30 25 6 15 10 12 11 -9 1 -18 12 -40 25 -48 14 -9 18 -5 9 9 -9 14 -1 23 19 23 22 0 29 -11 21 -32 -10 -26 -2 -31 38 -23 36 7 50 1 50 -22 0 -22 6 -25 21 -10 26 26 185 -8 168 -35 -6 -10 -2 -18 10 -18 11 0 22 11 23 25 1 20 3 20 11 0 14 -35 47 -31 47 5 0 17 14 30 31 30 16 0 35 -13 42 -30 6 -16 20 -30 30 -30 11 0 14 9 7 20 -7 11 -2 20 10 20 14 0 18 -17 9 -45 -14 -45 -14 -45 29 3 23 26 42 38 42 25 0 -13 10 -23 21 -23 12 0 16 9 10 19 -7 10 22 25 63 32 42 6 90 17 106 24 17 6 36 10 44 8 8 -1 10 9 5 23 -6 16 10 27 46 30 30 2 58 14 62 26 5 15 13 13 24 -4 13 -21 20 -19 31 10 13 35 16 35 39 4 19 -26 27 -28 35 -8z m-190 -299 c-238 -3 -634 -3 -880 0 -245 3 -50 6 434 6 484 0 685 -3 446 -6z"/> <path d="M4753 1630 c-20 -55 -59 -144 -86 -198 -69 -135 -92 -197 -66 -181 68 41 205 342 195 427 -5 44 -12 37 -43 -48z"/> <path d="M2952 1565 c23 -94 168 -346 168 -291 0 28 -157 346 -171 346 -5 0 -4 -25 3 -55z"/> <path d="M7714 1367 c-29 -28 -13 -67 27 -67 28 0 40 11 35 33 -7 37 -41 56 -62 34z"/> <path d="M2011 1321 c-18 -28 4 -61 42 -61 17 0 27 14 23 33 -7 41 -47 57 -65 28z"/> <path d="M7249 1178 c-18 -28 21 -67 49 -49 32 20 27 71 -7 71 -16 0 -35 -10 -42 -22z"/> <path d="M4147 1149 c-17 -44 25 -85 56 -54 25 25 9 85 -23 85 -12 0 -27 -14 -33 -31z"/> <path d="M4004 1085 c4 -19 20 -35 36 -35 16 0 32 16 36 35 5 25 -6 35 -36 35 -30 0 -41 -10 -36 -35z"/> <path d="M3850 1079 c-8 -12 -5 -32 6 -43 27 -27 90 -4 79 29 -11 33 -68 43 -85 14z"/> <path d="M6829 998 c-18 -28 21 -67 49 -49 32 20 27 71 -7 71 -16 0 -35 -10 -42 -22z"/> <path d="M6380 840 c-26 -16 -26 -23 4 -53 33 -32 35 -32 48 1 17 45 -13 76 -52 52z"/> <path d="M2011 721 c-18 -28 4 -61 42 -61 17 0 27 14 23 33 -7 41 -47 57 -65 28z"/> <path d="M2480 642 c0 -16 259 -6 278 11 5 4 -56 7 -135 7 -78 0 -143 -8 -143 -18z"/> <path d="M5070 640 c55 -8 109 -7 119 3 11 10 -32 16 -100 14 l-119 -2 100 -15z"/> </g> </svg> 